<?xml version="1.0" encoding="utf-8"?>
<!-- Generator: Adobe Illustrator 24.2.1, SVG Export Plug-In . SVG Version: 6.00 Build 0)  -->
<svg version="1.1" id="레이어_1" xmlns="http://www.w3.org/2000/svg" xmlns:xlink="http://www.w3.org/1999/xlink" x="0px"
	 y="0px" viewBox="0 0 921.3 1119.7" style="enable-background:new 0 0 921.3 1119.7;" xml:space="preserve">
<style type="text/css">
	.st0{fill:none;stroke:#000000;stroke-width:0.25;stroke-miterlimit:10;}
</style>
<polygon class="st0" points="374,341.7 404.4,367.2 429.9,336.8 399.5,311.3 "/>
<polygon class="st0" points="320.6,310.9 356.5,327.6 373.3,291.7 337.3,274.9 "/>
<polygon class="st0" points="268.6,253.1 261.7,292.2 300.8,299.1 307.7,260 "/>
<polygon class="st0" points="317.9,207 311,246.1 350.1,252.9 357,213.9 "/>
<polygon class="st0" points="105.2,169.5 98.3,208.5 137.3,215.4 144.2,176.4 "/>
<polygon class="st0" points="52,160.1 45.1,199.2 84.2,206.1 91.1,167 "/>
<polygon class="st0" points="267,184.3 260.1,223.4 299.2,230.3 306.1,191.2 "/>
<polygon class="st0" points="160.7,165.5 153.8,204.6 192.9,211.5 199.8,172.4 "/>
<polygon class="st0" points="216.2,161.6 209.3,200.7 248.4,207.6 255.3,168.5 "/>
<polygon class="st0" points="327.3,153.8 320.4,192.9 359.4,199.8 366.3,160.7 "/>
<polygon class="st0" points="114.5,116.3 107.6,155.4 146.7,162.3 153.6,123.2 "/>
<polygon class="st0" points="61.4,106.9 54.5,146 93.5,152.9 100.4,113.8 "/>
<polygon class="st0" points="276.4,131.1 269.5,170.2 308.6,177.1 315.5,138 "/>
<polygon class="st0" points="170.1,112.4 163.2,151.4 202.2,158.3 209.1,119.3 "/>
<polygon class="st0" points="225.6,108.5 218.7,147.5 257.8,154.4 264.7,115.3 "/>
<polygon class="st0" points="336.6,100.6 329.7,139.7 368.8,146.6 375.7,107.5 "/>
<polygon class="st0" points="123.9,63.1 117,102.2 156.1,109.1 163,70 "/>
<polygon class="st0" points="70.7,53.7 63.8,92.8 102.9,99.7 109.8,60.6 "/>
<polygon class="st0" points="285.8,77.9 278.9,117 318,123.9 324.9,84.8 "/>
<polygon class="st0" points="179.4,59.2 172.5,98.3 211.6,105.2 218.5,66.1 "/>
<polygon class="st0" points="235,55.3 228.1,94.4 267.1,101.2 274,62.2 "/>
<path class="st0" d="M25.2,203.9c-0.6,1.8,0.3,3.7,2.1,4.3c1.8,0.6,3.7-0.3,4.3-2.1c0.6-1.8-0.3-3.7-2.1-4.3
	C27.8,201.2,25.9,202.1,25.2,203.9L25.2,203.9z"/>
<path class="st0" d="M52.3,49.9c-0.6,1.8,0.3,3.7,2.1,4.3c1.8,0.6,3.7-0.3,4.3-2.1c0.6-1.8-0.3-3.7-2.1-4.3
	C54.9,47.2,53,48.1,52.3,49.9L52.3,49.9z"/>
<path class="st0" d="M262.2,306.7c-0.6,1.8,0.3,3.7,2.1,4.3c1.8,0.6,3.7-0.3,4.3-2.1s-0.3-3.7-2.1-4.3
	C264.8,304,262.9,304.9,262.2,306.7L262.2,306.7z"/>
<path class="st0" d="M229.5,36.4c-0.6,1.8,0.3,3.7,2.1,4.3c1.8,0.6,3.7-0.3,4.3-2.1c0.6-1.8-0.3-3.7-2.1-4.3
	C232.2,33.7,230.3,34.6,229.5,36.4L229.5,36.4z"/>
<path class="st0" d="M388.9,90.9c-0.6,1.8,0.3,3.7,2.1,4.3c1.8,0.6,3.7-0.3,4.3-2.1c0.6-1.8-0.3-3.7-2.1-4.3
	C391.5,88.2,389.6,89.1,388.9,90.9L388.9,90.9z"/>
<path class="st0" d="M368.7,209.5c-0.6,1.8,0.3,3.7,2.1,4.3c1.8,0.6,3.7-0.3,4.3-2.1c0.6-1.8-0.3-3.7-2.1-4.3
	C371.3,206.8,369.4,207.7,368.7,209.5L368.7,209.5z"/>
<path class="st0" d="M96.1,160c-0.6,1.8,0.3,3.7,2.1,4.3c1.8,0.6,3.7-0.3,4.3-2.1c0.6-1.8-0.3-3.7-2.1-4.3
	C98.8,157.4,96.9,158.2,96.1,160L96.1,160z"/>
<polygon class="st0" points="521.7,311.3 491.3,336.8 516.8,367.2 547.2,341.7 "/>
<polygon class="st0" points="583.9,274.9 547.9,291.7 564.7,327.6 600.7,310.9 "/>
<polygon class="st0" points="613.6,260 620.5,299.1 659.5,292.2 652.6,253.1 "/>
<polygon class="st0" points="564.3,213.9 571.2,252.9 610.3,246.1 603.4,207 "/>
<polygon class="st0" points="777,176.4 783.9,215.4 823,208.5 816.1,169.5 "/>
<polygon class="st0" points="830.2,167 837.1,206.1 876.2,199.2 869.3,160.1 "/>
<polygon class="st0" points="615.1,191.2 622,230.3 661.1,223.4 654.2,184.3 "/>
<polygon class="st0" points="721.5,172.4 728.4,211.5 767.5,204.6 760.6,165.5 "/>
<polygon class="st0" points="666,168.5 672.9,207.6 711.9,200.7 705.1,161.6 "/>
<polygon class="st0" points="554.9,160.7 561.8,199.8 600.9,192.9 594,153.8 "/>
<polygon class="st0" points="767.6,123.2 774.5,162.3 813.6,155.4 806.7,116.3 "/>
<polygon class="st0" points="820.8,113.8 827.7,152.9 866.8,146 859.9,106.9 "/>
<polygon class="st0" points="605.8,138 612.7,177.1 651.7,170.2 644.8,131.1 "/>
<polygon class="st0" points="712.1,119.3 719,158.3 758.1,151.4 751.2,112.4 "/>
<polygon class="st0" points="656.6,115.3 663.5,154.4 702.6,147.5 695.7,108.5 "/>
<polygon class="st0" points="545.6,107.5 552.4,146.6 591.5,139.7 584.6,100.6 "/>
<polygon class="st0" points="758.3,70 765.2,109.1 804.2,102.2 797.4,63.1 "/>
<polygon class="st0" points="811.4,60.6 818.3,99.7 857.4,92.8 850.5,53.7 "/>
<polygon class="st0" points="596.4,84.8 603.3,123.9 642.4,117 635.5,77.9 "/>
<polygon class="st0" points="702.7,66.1 709.6,105.2 748.7,98.3 741.8,59.2 "/>
<polygon class="st0" points="647.2,62.2 654.1,101.2 693.2,94.4 686.3,55.3 "/>
<path class="st0" d="M896.1,203.9c0.6,1.8-0.3,3.7-2.1,4.3c-1.8,0.6-3.7-0.3-4.3-2.1c-0.6-1.8,0.3-3.7,2.1-4.3
	C893.5,201.2,895.4,202.1,896.1,203.9L896.1,203.9z"/>
<path class="st0" d="M868.9,49.9c0.6,1.8-0.3,3.7-2.1,4.3c-1.8,0.6-3.7-0.3-4.3-2.1c-0.6-1.8,0.3-3.7,2.1-4.3
	C866.3,47.2,868.2,48.1,868.9,49.9L868.9,49.9z"/>
<path class="st0" d="M659.1,306.7c0.6,1.8-0.3,3.7-2.1,4.3c-1.8,0.6-3.7-0.3-4.3-2.1c-0.6-1.8,0.3-3.7,2.1-4.3
	C656.4,304,658.3,304.9,659.1,306.7L659.1,306.7z"/>
<path class="st0" d="M691.7,36.4c0.6,1.8-0.3,3.7-2.1,4.3c-1.8,0.6-3.7-0.3-4.3-2.1c-0.6-1.8,0.3-3.7,2.1-4.3
	C689.1,33.7,691,34.6,691.7,36.4L691.7,36.4z"/>
<path class="st0" d="M532.3,90.9c0.6,1.8-0.3,3.7-2.1,4.3c-1.8,0.6-3.7-0.3-4.3-2.1c-0.6-1.8,0.3-3.7,2.1-4.3
	C529.7,88.2,531.6,89.1,532.3,90.9L532.3,90.9z"/>
<path class="st0" d="M552.5,209.5c0.6,1.8-0.3,3.7-2.1,4.3c-1.8,0.6-3.7-0.3-4.3-2.1c-0.6-1.8,0.3-3.7,2.1-4.3
	C549.9,206.8,551.8,207.7,552.5,209.5L552.5,209.5z"/>
<path class="st0" d="M825.1,160c0.6,1.8-0.3,3.7-2.1,4.3c-1.8,0.6-3.7-0.3-4.3-2.1c-0.6-1.8,0.3-3.7,2.1-4.3
	C822.5,157.4,824.4,158.2,825.1,160L825.1,160z"/>
<path class="st0" d="M879.4,47.8c-18.9-57.4-132.8-39.1-194-24.4C613,40.6,563.8,77.7,494.9,77.7c-10.6,0-22.2,0-33.8,0
	c-0.3,0-0.7,0-1,0c-11.5,0-23.2,0-33.8,0c-68.9,0-118.1-37-190.5-54.3c-61.2-14.6-175.1-33-194,24.4C14.9,129.3-4.4,192,18.9,215.3
	c46.5,46.3,164.9,5.8,234,101.2c39.8,54.9,113.4,67.3,136.4,71.7c22.4,4.2,64,5.7,70.9,5.9v0c0,0,0.2,0,0.5,0c0.3,0,0.5,0,0.5,0v0
	c6.9-0.2,48.5-1.7,70.9-5.9c23-4.4,96.6-16.8,136.4-71.7c69.1-95.3,187.5-54.8,234-101.2C925.6,192,906.3,129.3,879.4,47.8z"/>
<path class="st0" d="M440.6,483.9c-11-11.1-22-10.3-22-10.3l-29.9,26.1l-61.7-70.5l0.7-19.7l-26.1-29.9L197,362.6l-26.1-29.9
	l-20.3-10.8l-33-22.1l-21.1-7.7l-37.6-12.8l-25.4-42l-22.7,13.7c7.9,12,25.6,38.1,38.2,52.1c15.6,17.4,64.4,73.9,131.9,79.6
	c117.3,9.8,144,132,207.7,147.8c16.4,4.1,35.8-6.8,58.4-27.2C447,503.2,451.6,495,440.6,483.9z"/>
<circle class="st0" cx="392.4" cy="517.1" r="4.7"/>
<circle class="st0" cx="181.7" cy="367.5" r="4.7"/>
<path class="st0" d="M603.5,434.6l9.2-17.4l37.5-12.8l9.2-17.4l37.5-12.8l17.9,8.1l37.5-12.8l17.9,8.1l88.6-30.3l12.8,37.5
	c0,0,5.7,6,19.1,0.9c13.4-5.1,9.5-21.7,9.5-21.7c-4.4-8.8-9-17.8-13.8-27.1c-27.6-53.8-137.2-18.1-195.4,5.8
	c-68.9,28.3-111.8,72.5-179.9,83.1c-5.5,0.9-11.2,1.7-17.1,2.7l4.6,29.5l67.1-10.5L603.5,434.6z"/>
<circle class="st0" cx="873.6" cy="342.2" r="4.7"/>
<circle class="st0" cx="696.4" cy="356.2" r="4.7"/>
<circle class="st0" cx="547.3" cy="434.6" r="4.7"/>
<path class="st0" d="M603.2,491.6l11.8-15.8l39.1-6.9l11.8-15.8l39.1-6.9l16.4,10.8l39.1-6.9l16.4,10.8l92.3-16.3l6.9,39.1
	c0,0,4.7,6.8,18.8,3.9c14-3,12.7-20,12.7-20c-3-9.3-6.2-19-9.4-28.9c-18.9-57.4-132.8-39.1-194-24.4
	c-72.4,17.3-121.7,54.3-190.5,54.3c-5.5,0-11.3,0-17.3,0v29.9h67.9L603.2,491.6z"/>
<circle class="st0" cx="884.3" cy="442" r="4.7"/>
<circle class="st0" cx="707.1" cy="428.5" r="4.7"/>
<circle class="st0" cx="547.7" cy="483" r="4.7"/>
<path class="st0" d="M563.6,565.7l11.8-15.8l39.1-6.9l11.8-15.8l39.1-6.9l16.4,10.8l39.1-6.9l16.4,10.8l92.3-16.3l6.9,39.1
	c0,0,4.7,6.8,18.8,3.9c14-3,12.7-20,12.7-20c-3-9.3-6.2-19-9.4-28.9c-18.9-57.4-132.8-39.1-194-24.4
	c-72.4,17.3-121.7,54.3-190.5,54.3c-5.5,0-11.3,0-17.3,0v29.9h67.9L563.6,565.7z"/>
<circle class="st0" cx="844.8" cy="516.1" r="4.7"/>
<circle class="st0" cx="667.5" cy="502.6" r="4.7"/>
<circle class="st0" cx="508.1" cy="557.1" r="4.7"/>
<path class="st0" d="M537.9,645.7l11.8-15.8l39.1-6.9l11.8-15.8l39.1-6.9l16.4,10.8l39.1-6.9l16.4,10.8l92.3-16.3l6.9,39.1
	c0,0,4.7,6.8,18.8,3.9c14-3,12.7-20,12.7-20c-3-9.3-6.2-19-9.4-28.9c-18.9-57.4-132.8-39.1-194-24.4
	c-72.4,17.3-121.7,54.3-190.5,54.3c-5.5,0-11.3,0-17.3,0v29.9h67.9L537.9,645.7z"/>
<circle class="st0" cx="819" cy="596.1" r="4.7"/>
<circle class="st0" cx="641.8" cy="582.6" r="4.7"/>
<circle class="st0" cx="482.4" cy="637.1" r="4.7"/>
<path class="st0" d="M397.1,607.8c-9.2-12.7-20.2-13.5-20.2-13.5l-33.5,21.3l-50.2-79.1l3.7-19.3l-21.3-33.5l-100.8-32.9l-21.3-33.5
	l-18.4-13.8L106,376.6l-19.7-10.8l-35.2-18.4L32.4,302L7.9,312.1c6,13.1,19.5,41.5,29.8,57.3c12.8,19.6,52.3,82.9,118.2,98.8
	C270.3,495.7,278,620.6,338.5,645.9c15.5,6.5,36.4-1.3,61.8-17.9C400.4,627.8,406.2,620.4,397.1,607.8z"/>
<circle class="st0" cx="344.4" cy="633.2" r="4.7"/>
<circle class="st0" cx="159.1" cy="453.3" r="4.7"/>
<path class="st0" d="M394.7,715.5c-9.2-12.7-20.2-13.5-20.2-13.5L341,723.2l-50.2-79.1l3.7-19.3l-21.3-33.5l-100.8-32.9l-21.3-33.5
	l-18.4-13.8l-29.2-26.9l-19.7-10.8L48.8,455l-18.7-45.4L5.5,419.7c6,13.1,19.5,41.5,29.8,57.3c12.8,19.6,52.3,82.9,118.2,98.8
	c114.4,27.6,122.1,152.5,182.7,177.8c15.5,6.5,36.4-1.3,61.8-17.9C398,735.5,403.8,728.1,394.7,715.5z"/>
<circle class="st0" cx="342" cy="740.9" r="4.7"/>
<circle class="st0" cx="156.7" cy="560.9" r="4.7"/>
<path class="st0" d="M887.3,617.3c-15.6-0.4-23,7.8-23,7.8l-3.5,39.5l-93.3-8.3l-13.1-14.7l-39.5-3.5l-87.5,60l-39.5-3.5l-22.2,6.2
	l-39.1,6.8l-20.5,9l-36,16.7l-47.4-12.8l-6.9,25.6c14,3.2,44.8,9.8,63.5,11.3c23.3,1.8,97.6,9,150.3-33.7
	c91.5-74,195.3-4.1,252.2-36.7c14.6-8.4,21.2-29.7,23.4-60C905.2,626.9,902.8,617.7,887.3,617.3z"/>
<circle class="st0" cx="875.4" cy="674.6" r="4.7"/>
<circle class="st0" cx="619.7" cy="712.1" r="4.7"/>
<path class="st0" d="M24.1,924c-0.6,1.8,0.3,3.7,2.1,4.3c1.8,0.6,3.7-0.3,4.3-2.1c0.6-1.8-0.3-3.7-2.1-4.3
	C26.7,921.3,24.8,922.2,24.1,924L24.1,924z"/>
<path class="st0" d="M51.2,770.1c-0.6,1.8,0.3,3.7,2.1,4.3c1.8,0.6,3.7-0.3,4.3-2.1c0.6-1.8-0.3-3.7-2.1-4.3
	C53.8,767.4,52,768.3,51.2,770.1L51.2,770.1z"/>
<path class="st0" d="M261.1,1026.8c-0.6,1.8,0.3,3.7,2.1,4.3c1.8,0.6,3.7-0.3,4.3-2.1c0.6-1.8-0.3-3.7-2.1-4.3
	C263.7,1024.1,261.8,1025,261.1,1026.8L261.1,1026.8z"/>
<path class="st0" d="M228.5,756.5c-0.6,1.8,0.3,3.7,2.1,4.3c1.8,0.6,3.7-0.3,4.3-2.1c0.6-1.8-0.3-3.7-2.1-4.3
	C231.1,753.8,229.2,754.7,228.5,756.5L228.5,756.5z"/>
<path class="st0" d="M387.8,811c-0.6,1.8,0.3,3.7,2.1,4.3c1.8,0.6,3.7-0.3,4.3-2.1c0.6-1.8-0.3-3.7-2.1-4.3
	C390.5,808.4,388.6,809.2,387.8,811L387.8,811z"/>
<path class="st0" d="M367.6,929.7c-0.6,1.8,0.3,3.7,2.1,4.3c1.8,0.6,3.7-0.3,4.3-2.1c0.6-1.8-0.3-3.7-2.1-4.3
	C370.2,927,368.4,927.9,367.6,929.7L367.6,929.7z"/>
<path class="st0" d="M95.1,880.2c-0.6,1.8,0.3,3.7,2.1,4.3c1.8,0.6,3.7-0.3,4.3-2.1c0.6-1.8-0.3-3.7-2.1-4.3
	C97.7,877.5,95.8,878.4,95.1,880.2L95.1,880.2z"/>
<path class="st0" d="M895,924c0.6,1.8-0.3,3.7-2.1,4.3c-1.8,0.6-3.7-0.3-4.3-2.1c-0.6-1.8,0.3-3.7,2.1-4.3
	C892.4,921.3,894.3,922.2,895,924L895,924z"/>
<path class="st0" d="M867.9,770.1c0.6,1.8-0.3,3.7-2.1,4.3c-1.8,0.6-3.7-0.3-4.3-2.1c-0.6-1.8,0.3-3.7,2.1-4.3
	C865.3,767.4,867.1,768.3,867.9,770.1L867.9,770.1z"/>
<path class="st0" d="M658,1026.8c0.6,1.8-0.3,3.7-2.1,4.3c-1.8,0.6-3.7-0.3-4.3-2.1c-0.6-1.8,0.3-3.7,2.1-4.3
	C655.4,1024.1,657.3,1025,658,1026.8L658,1026.8z"/>
<path class="st0" d="M690.6,756.5c0.6,1.8-0.3,3.7-2.1,4.3c-1.8,0.6-3.7-0.3-4.3-2.1c-0.6-1.8,0.3-3.7,2.1-4.3
	C688,753.8,689.9,754.7,690.6,756.5L690.6,756.5z"/>
<path class="st0" d="M531.3,811c0.6,1.8-0.3,3.7-2.1,4.3c-1.8,0.6-3.7-0.3-4.3-2.1c-0.6-1.8,0.3-3.7,2.1-4.3
	C528.6,808.4,530.5,809.2,531.3,811L531.3,811z"/>
<path class="st0" d="M551.5,929.7c0.6,1.8-0.3,3.7-2.1,4.3c-1.8,0.6-3.7-0.3-4.3-2.1c-0.6-1.8,0.3-3.7,2.1-4.3
	C548.9,927,550.7,927.9,551.5,929.7L551.5,929.7z"/>
<path class="st0" d="M824,880.2c0.6,1.8-0.3,3.7-2.1,4.3c-1.8,0.6-3.7-0.3-4.3-2.1c-0.6-1.8,0.3-3.7,2.1-4.3
	C821.4,877.5,823.3,878.4,824,880.2L824,880.2z"/>
<path class="st0" d="M878.3,767.9c-18.9-57.4-132.8-39.1-194-24.4c-72.4,17.3-121.7,54.3-190.5,54.3c-10.6,0-22.2,0-33.8,0
	c-0.3,0-0.7,0-1,0c-11.5,0-23.2,0-33.8,0c-68.9,0-118.1-37-190.5-54.3c-61.2-14.6-175.1-33-194,24.4
	C13.9,849.5-5.4,912.2,17.9,935.4c46.5,46.3,164.9,5.8,234,101.2c39.8,54.9,113.4,67.3,136.4,71.7c22.4,4.2,64,5.7,70.9,5.9v0
	c0,0,0.2,0,0.5,0c0.3,0,0.5,0,0.5,0v0c6.9-0.2,48.5-1.7,70.9-5.9c23-4.4,96.6-16.8,136.4-71.7c69.1-95.3,187.5-54.8,234-101.2
	C924.5,912.2,905.2,849.5,878.3,767.9z"/>
</svg>
