<?xml version="1.0" encoding="utf-8"?>
<!-- Generator: Adobe Illustrator 24.2.1, SVG Export Plug-In . SVG Version: 6.00 Build 0)  -->
<svg version="1.1" id="레이어_1" xmlns="http://www.w3.org/2000/svg" xmlns:xlink="http://www.w3.org/1999/xlink" x="0px"
	 y="0px" viewBox="0 0 757.4 522" style="enable-background:new 0 0 757.4 522;" xml:space="preserve">
<style type="text/css">
	.st0{fill:none;stroke:#000000;stroke-width:0.25;stroke-miterlimit:10;}
</style>
<polygon class="st0" points="14.2,14.2 14.2,176.2 216.7,176.2 216.7,230.2 540.7,230.2 540.7,176.2 743.2,176.2 743.2,14.2 "/>
<polygon class="st0" points="493.8,183.3 493.8,223 533.5,223 533.5,183.3 "/>
<polygon class="st0" points="439.8,183.3 439.8,223 479.5,223 479.5,183.3 "/>
<polygon class="st0" points="385.8,183.3 385.8,223 425.5,223 425.5,183.3 "/>
<polygon class="st0" points="331.8,183.3 331.8,223 371.5,223 371.5,183.3 "/>
<polygon class="st0" points="277.8,183.3 277.8,223 317.5,223 317.5,183.3 "/>
<polygon class="st0" points="223.8,183.3 223.8,223 263.5,223 263.5,183.3 "/>
<polygon class="st0" points="696.3,129.3 696.3,169 736,169 736,129.3 "/>
<polygon class="st0" points="642.3,129.3 642.3,169 682,169 682,129.3 "/>
<polygon class="st0" points="588.3,129.3 588.3,169 628,169 628,129.3 "/>
<polygon class="st0" points="534.3,129.3 534.3,169 574,169 574,129.3 "/>
<polygon class="st0" points="480.3,129.3 480.3,169 520,169 520,129.3 "/>
<polygon class="st0" points="426.3,129.3 426.3,169 466,169 466,129.3 "/>
<polygon class="st0" points="291.3,129.3 291.3,169 331,169 331,129.3 "/>
<polygon class="st0" points="237.3,129.3 237.3,169 277,169 277,129.3 "/>
<polygon class="st0" points="183.3,129.3 183.3,169 223,169 223,129.3 "/>
<polygon class="st0" points="129.3,129.3 129.3,169 169,169 169,129.3 "/>
<polygon class="st0" points="75.3,129.3 75.3,169 115,169 115,129.3 "/>
<polygon class="st0" points="21.3,129.3 21.3,169 61,169 61,129.3 "/>
<polygon class="st0" points="696.3,75.3 696.3,115 736,115 736,75.3 "/>
<polygon class="st0" points="642.3,75.3 642.3,115 682,115 682,75.3 "/>
<polygon class="st0" points="588.3,75.3 588.3,115 628,115 628,75.3 "/>
<polygon class="st0" points="534.3,75.3 534.3,115 574,115 574,75.3 "/>
<polygon class="st0" points="480.3,75.3 480.3,115 520,115 520,75.3 "/>
<polygon class="st0" points="426.3,75.3 426.3,115 466,115 466,75.3 "/>
<polygon class="st0" points="291.3,75.3 291.3,115 331,115 331,75.3 "/>
<polygon class="st0" points="237.3,75.3 237.3,115 277,115 277,75.3 "/>
<polygon class="st0" points="183.3,75.3 183.3,115 223,115 223,75.3 "/>
<polygon class="st0" points="129.3,75.3 129.3,115 169,115 169,75.3 "/>
<polygon class="st0" points="75.3,75.3 75.3,115 115,115 115,75.3 "/>
<polygon class="st0" points="21.3,75.3 21.3,115 61,115 61,75.3 "/>
<polygon class="st0" points="696.3,21.3 696.3,61 736,61 736,21.3 "/>
<polygon class="st0" points="642.3,21.3 642.3,61 682,61 682,21.3 "/>
<polygon class="st0" points="588.3,21.3 588.3,61 628,61 628,21.3 "/>
<polygon class="st0" points="534.3,21.3 534.3,61 574,61 574,21.3 "/>
<polygon class="st0" points="480.3,21.3 480.3,61 520,61 520,21.3 "/>
<polygon class="st0" points="426.3,21.3 426.3,61 466,61 466,21.3 "/>
<polygon class="st0" points="291.3,21.3 291.3,61 331,61 331,21.3 "/>
<polygon class="st0" points="237.3,21.3 237.3,61 277,61 277,21.3 "/>
<polygon class="st0" points="183.3,21.3 183.3,61 223,61 223,21.3 "/>
<polygon class="st0" points="129.3,21.3 129.3,61 169,61 169,21.3 "/>
<polygon class="st0" points="75.3,21.3 75.3,61 115,61 115,21.3 "/>
<polygon class="st0" points="21.3,21.3 21.3,61 61,61 61,21.3 "/>
<path class="st0" d="M64.3,67.9c0,1.9,1.5,3.4,3.4,3.4s3.4-1.5,3.4-3.4s-1.5-3.4-3.4-3.4S64.3,66,64.3,67.9L64.3,67.9z"/>
<path class="st0" d="M61,115"/>
<path class="st0" d="M64.8,122.2c0,1.9,1.5,3.4,3.4,3.4s3.4-1.5,3.4-3.4s-1.5-3.4-3.4-3.4S64.8,120.3,64.8,122.2L64.8,122.2z"/>
<path class="st0" d="M469.3,174.3c0,1.9,1.5,3.4,3.4,3.4c1.9,0,3.4-1.5,3.4-3.4c0-1.9-1.5-3.4-3.4-3.4
	C470.8,170.9,469.3,172.4,469.3,174.3L469.3,174.3z"/>
<path class="st0" d="M685.9,68.6c0,1.9,1.5,3.4,3.4,3.4c1.9,0,3.4-1.5,3.4-3.4s-1.5-3.4-3.4-3.4C687.4,65.2,685.9,66.7,685.9,68.6
	L685.9,68.6z"/>
<path class="st0" d="M685.8,122c0,1.9,1.5,3.4,3.4,3.4s3.4-1.5,3.4-3.4s-1.5-3.4-3.4-3.4S685.8,120.1,685.8,122L685.8,122z"/>
<path class="st0" d="M469.8,68.2c0,1.9,1.5,3.4,3.4,3.4c1.9,0,3.4-1.5,3.4-3.4s-1.5-3.4-3.4-3.4C471.3,64.8,469.8,66.3,469.8,68.2
	L469.8,68.2z"/>
<path class="st0" d="M280.8,68.2c0,1.9,1.5,3.4,3.4,3.4c1.9,0,3.4-1.5,3.4-3.4s-1.5-3.4-3.4-3.4C282.3,64.8,280.8,66.3,280.8,68.2
	L280.8,68.2z"/>
<path class="st0" d="M281.3,174.3c0,1.9,1.5,3.4,3.4,3.4s3.4-1.5,3.4-3.4c0-1.9-1.5-3.4-3.4-3.4S281.3,172.4,281.3,174.3
	L281.3,174.3z"/>
<polygon class="st0" points="14.2,255.1 14.2,417.1 216.7,417.1 216.7,471.1 540.7,471.1 540.7,417.1 743.2,417.1 743.2,255.1 "/>
<path class="st0" d="M64.3,308.8c0,1.9,1.5,3.4,3.4,3.4s3.4-1.5,3.4-3.4s-1.5-3.4-3.4-3.4S64.3,306.9,64.3,308.8L64.3,308.8z"/>
<path class="st0" d="M61,356"/>
<path class="st0" d="M64.8,363.1c0,1.9,1.5,3.4,3.4,3.4s3.4-1.5,3.4-3.4c0-1.9-1.5-3.4-3.4-3.4S64.8,361.2,64.8,363.1L64.8,363.1z"
	/>
<path class="st0" d="M469.3,415.2c0,1.9,1.5,3.4,3.4,3.4c1.9,0,3.4-1.5,3.4-3.4c0-1.9-1.5-3.4-3.4-3.4
	C470.8,411.8,469.3,413.3,469.3,415.2L469.3,415.2z"/>
<path class="st0" d="M685.9,309.6c0,1.9,1.5,3.4,3.4,3.4c1.9,0,3.4-1.5,3.4-3.4c0-1.9-1.5-3.4-3.4-3.4
	C687.4,306.2,685.9,307.7,685.9,309.6L685.9,309.6z"/>
<path class="st0" d="M685.8,363c0,1.9,1.5,3.4,3.4,3.4s3.4-1.5,3.4-3.4c0-1.9-1.5-3.4-3.4-3.4S685.8,361.1,685.8,363L685.8,363z"/>
<path class="st0" d="M469.8,309.1c0,1.9,1.5,3.4,3.4,3.4c1.9,0,3.4-1.5,3.4-3.4c0-1.9-1.5-3.4-3.4-3.4
	C471.3,305.7,469.8,307.2,469.8,309.1L469.8,309.1z"/>
<path class="st0" d="M280.8,309.1c0,1.9,1.5,3.4,3.4,3.4c1.9,0,3.4-1.5,3.4-3.4c0-1.9-1.5-3.4-3.4-3.4
	C282.3,305.7,280.8,307.2,280.8,309.1L280.8,309.1z"/>
<path class="st0" d="M281.3,415.2c0,1.9,1.5,3.4,3.4,3.4s3.4-1.5,3.4-3.4c0-1.9-1.5-3.4-3.4-3.4S281.3,413.3,281.3,415.2
	L281.3,415.2z"/>
</svg>
