<?xml version="1.0" encoding="utf-8"?>
<!-- Generator: Adobe Illustrator 24.2.1, SVG Export Plug-In . SVG Version: 6.00 Build 0)  -->
<svg version="1.1" id="레이어_1" xmlns="http://www.w3.org/2000/svg" xmlns:xlink="http://www.w3.org/1999/xlink" x="0px"
	 y="0px" viewBox="0 0 850.4 666.1" style="enable-background:new 0 0 850.4 666.1;" xml:space="preserve">
<style type="text/css">
	.st0{fill:none;stroke:#000000;stroke-width:0.25;stroke-miterlimit:10;}
</style>
<g>
	<path class="st0" d="M280.4,317l-217-72.2c-34-11.3-54.6-46.9-48-83L37.5,40.4c2.8-15.2,15.7-26.2,30.8-26.2h671.2
		c15.1,0,28,11,30.8,26.2l22.1,121.4c6.6,36.1-14,71.7-48,83l-217,72.2c-17.9,5.9-36.5,9-55.3,9H335.7
		C316.9,326,298.3,323,280.4,317z"/>
	<polygon class="st0" points="319.8,263.3 312.9,302.4 352,309.3 358.9,270.2 	"/>
	<polygon class="st0" points="268.9,240.6 262.1,279.7 301.1,286.6 308,247.5 	"/>
	<polygon class="st0" points="217.2,223.3 210.3,262.4 249.4,269.3 256.3,230.2 	"/>
	<polygon class="st0" points="304.9,192.1 298,231.2 337.1,238.1 344,199 	"/>
	<polygon class="st0" points="92.2,154.6 85.3,193.7 124.4,200.6 131.3,161.5 	"/>
	<polygon class="st0" points="39,145.3 32.1,184.3 71.2,191.2 78.1,152.1 	"/>
	<polygon class="st0" points="253.6,172.1 246.7,211.2 285.8,218.1 292.7,179 	"/>
	<polygon class="st0" points="147.2,153.4 140.4,192.5 179.4,199.3 186.3,160.3 	"/>
	<polygon class="st0" points="201.8,154.8 194.9,193.9 234,200.8 240.9,161.7 	"/>
	<polygon class="st0" points="314.3,139 307.4,178 346.5,184.9 353.4,145.9 	"/>
	<polygon class="st0" points="101.6,101.5 94.7,140.5 133.8,147.4 140.7,108.3 	"/>
	<polygon class="st0" points="48.4,92.1 41.5,131.2 80.6,138.1 87.5,99 	"/>
	<polygon class="st0" points="263,119 256.1,158 295.2,164.9 302.1,125.8 	"/>
	<polygon class="st0" points="156.6,100.2 149.7,139.3 188.8,146.2 195.7,107.1 	"/>
	<polygon class="st0" points="211.2,101.6 204.3,140.7 243.4,147.6 250.3,108.5 	"/>
	<polygon class="st0" points="323.7,85.8 316.8,124.9 355.9,131.8 362.7,92.7 	"/>
	<polygon class="st0" points="110.9,48.3 104.1,87.4 143.1,94.2 150,55.2 	"/>
	<polygon class="st0" points="57.8,38.9 50.9,78 90,84.9 96.9,45.8 	"/>
	<polygon class="st0" points="272.4,65.8 265.5,104.9 304.6,111.7 311.4,72.7 	"/>
	<polygon class="st0" points="166,47 159.1,86.1 198.2,93 205.1,53.9 	"/>
	<polygon class="st0" points="220.6,48.4 213.7,87.5 252.8,94.4 259.7,55.3 	"/>
	<polygon class="st0" points="449,270.2 455.9,309.3 495,302.4 488.1,263.3 	"/>
	<polygon class="st0" points="499.8,247.5 506.7,286.6 545.8,279.7 538.9,240.6 	"/>
	<polygon class="st0" points="551.6,230.2 558.5,269.3 597.6,262.4 590.7,223.3 	"/>
	<polygon class="st0" points="463.9,199 470.8,238.1 509.9,231.2 503,192.1 	"/>
	<polygon class="st0" points="676.6,161.5 683.5,200.6 722.6,193.7 715.7,154.6 	"/>
	<polygon class="st0" points="729.8,152.1 736.7,191.2 775.8,184.3 768.9,145.3 	"/>
	<polygon class="st0" points="515.2,179 522.1,218.1 561.2,211.2 554.3,172.1 	"/>
	<polygon class="st0" points="621.5,160.3 628.4,199.3 667.5,192.5 660.6,153.4 	"/>
	<polygon class="st0" points="567,161.7 573.8,200.8 612.9,193.9 606,154.8 	"/>
	<polygon class="st0" points="454.5,145.9 461.4,184.9 500.5,178 493.6,139 	"/>
	<polygon class="st0" points="667.2,108.3 674.1,147.4 713.2,140.5 706.3,101.5 	"/>
	<polygon class="st0" points="720.4,99 727.3,138.1 766.4,131.2 759.5,92.1 	"/>
	<polygon class="st0" points="505.8,125.8 512.7,164.9 551.8,158 544.9,119 	"/>
	<polygon class="st0" points="612.2,107.1 619.1,146.2 658.1,139.3 651.2,100.2 	"/>
	<polygon class="st0" points="557.6,108.5 564.5,147.6 603.6,140.7 596.7,101.6 	"/>
	<polygon class="st0" points="445.1,92.7 452,131.8 491.1,124.9 484.2,85.8 	"/>
	<polygon class="st0" points="657.8,55.2 664.7,94.2 703.8,87.4 696.9,48.3 	"/>
	<polygon class="st0" points="711,45.8 717.9,84.9 757,78 750.1,38.9 	"/>
	<polygon class="st0" points="496.4,72.7 503.3,111.7 542.4,104.9 535.5,65.8 	"/>
	<polygon class="st0" points="602.8,53.9 609.7,93 648.8,86.1 641.9,47 	"/>
	<polygon class="st0" points="548.2,55.3 555.1,94.4 594.2,87.5 587.3,48.4 	"/>
	<path class="st0" d="M403,327.3"/>
	<path class="st0" d="M637.7,258.7c0,1.9,1.5,3.4,3.4,3.4c1.9,0,3.4-1.5,3.4-3.4s-1.5-3.4-3.4-3.4
		C639.2,255.3,637.7,256.8,637.7,258.7L637.7,258.7z"/>
	<path class="st0" d="M163.4,258.7c0,1.9,1.5,3.4,3.4,3.4c1.9,0,3.4-1.5,3.4-3.4s-1.5-3.4-3.4-3.4
		C164.9,255.3,163.4,256.8,163.4,258.7L163.4,258.7z"/>
	<path class="st0" d="M59.6,26.8c0,1.9,1.5,3.4,3.4,3.4c1.9,0,3.4-1.5,3.4-3.4s-1.5-3.4-3.4-3.4C61.1,23.4,59.6,24.9,59.6,26.8
		L59.6,26.8z"/>
	<path class="st0" d="M741.5,26.8c0,1.9,1.5,3.4,3.4,3.4c1.9,0,3.4-1.5,3.4-3.4s-1.5-3.4-3.4-3.4C743,23.4,741.5,24.9,741.5,26.8
		L741.5,26.8z"/>
	<path class="st0" d="M55.2,226.7c0,1.9,1.5,3.4,3.4,3.4s3.4-1.5,3.4-3.4c0-1.9-1.5-3.4-3.4-3.4S55.2,224.8,55.2,226.7L55.2,226.7z"
		/>
	<path class="st0" d="M745.9,226.7c0,1.9,1.5,3.4,3.4,3.4c1.9,0,3.4-1.5,3.4-3.4c0-1.9-1.5-3.4-3.4-3.4
		C747.4,223.3,745.9,224.8,745.9,226.7L745.9,226.7z"/>
	<path class="st0" d="M469.9,26.8c0,1.9,1.5,3.4,3.4,3.4c1.9,0,3.4-1.5,3.4-3.4s-1.5-3.4-3.4-3.4C471.4,23.4,469.9,24.9,469.9,26.8
		L469.9,26.8z"/>
	<path class="st0" d="M331.2,26.8c0,1.9,1.5,3.4,3.4,3.4c1.9,0,3.4-1.5,3.4-3.4s-1.5-3.4-3.4-3.4C332.7,23.4,331.2,24.9,331.2,26.8
		L331.2,26.8z"/>
	<path class="st0" d="M433.8,245.1c0,1.9,1.5,3.4,3.4,3.4c1.9,0,3.4-1.5,3.4-3.4c0-1.9-1.5-3.4-3.4-3.4
		C435.3,241.7,433.8,243.2,433.8,245.1L433.8,245.1z"/>
	<path class="st0" d="M367.3,245.1c0,1.9,1.5,3.4,3.4,3.4c1.9,0,3.4-1.5,3.4-3.4c0-1.9-1.5-3.4-3.4-3.4
		C368.8,241.7,367.3,243.2,367.3,245.1L367.3,245.1z"/>
</g>
<g>
	<path class="st0" d="M280.4,643l-217-72.2c-34-11.3-54.6-46.9-48-83l22.1-121.4c2.8-15.2,15.7-26.2,30.8-26.2h671.2
		c15.1,0,28,11,30.8,26.2l22.1,121.4c6.6,36.1-14,71.7-48,83l-217,72.2c-17.9,5.9-36.5,9-55.3,9H335.7
		C316.9,652,298.3,648.9,280.4,643z"/>
	<path class="st0" d="M403,653.3"/>
	<path class="st0" d="M637.7,584.7c0,1.9,1.5,3.4,3.4,3.4c1.9,0,3.4-1.5,3.4-3.4s-1.5-3.4-3.4-3.4
		C639.2,581.3,637.7,582.8,637.7,584.7L637.7,584.7z"/>
	<path class="st0" d="M163.4,584.7c0,1.9,1.5,3.4,3.4,3.4c1.9,0,3.4-1.5,3.4-3.4s-1.5-3.4-3.4-3.4
		C164.9,581.3,163.4,582.8,163.4,584.7L163.4,584.7z"/>
	<path class="st0" d="M59.6,352.8c0,1.9,1.5,3.4,3.4,3.4c1.9,0,3.4-1.5,3.4-3.4s-1.5-3.4-3.4-3.4C61.1,349.4,59.6,350.9,59.6,352.8
		L59.6,352.8z"/>
	<path class="st0" d="M741.5,352.8c0,1.9,1.5,3.4,3.4,3.4c1.9,0,3.4-1.5,3.4-3.4s-1.5-3.4-3.4-3.4
		C743,349.4,741.5,350.9,741.5,352.8L741.5,352.8z"/>
	<path class="st0" d="M55.2,552.7c0,1.9,1.5,3.4,3.4,3.4s3.4-1.5,3.4-3.4s-1.5-3.4-3.4-3.4S55.2,550.8,55.2,552.7L55.2,552.7z"/>
	<path class="st0" d="M745.9,552.7c0,1.9,1.5,3.4,3.4,3.4c1.9,0,3.4-1.5,3.4-3.4s-1.5-3.4-3.4-3.4
		C747.4,549.3,745.9,550.8,745.9,552.7L745.9,552.7z"/>
	<path class="st0" d="M469.9,352.8c0,1.9,1.5,3.4,3.4,3.4c1.9,0,3.4-1.5,3.4-3.4s-1.5-3.4-3.4-3.4
		C471.4,349.4,469.9,350.9,469.9,352.8L469.9,352.8z"/>
	<path class="st0" d="M331.2,352.8c0,1.9,1.5,3.4,3.4,3.4c1.9,0,3.4-1.5,3.4-3.4s-1.5-3.4-3.4-3.4
		C332.7,349.4,331.2,350.9,331.2,352.8L331.2,352.8z"/>
	<path class="st0" d="M433.8,571.1c0,1.9,1.5,3.4,3.4,3.4c1.9,0,3.4-1.5,3.4-3.4c0-1.9-1.5-3.4-3.4-3.4
		C435.3,567.7,433.8,569.2,433.8,571.1L433.8,571.1z"/>
	<path class="st0" d="M367.3,571.1c0,1.9,1.5,3.4,3.4,3.4c1.9,0,3.4-1.5,3.4-3.4c0-1.9-1.5-3.4-3.4-3.4
		C368.8,567.7,367.3,569.2,367.3,571.1L367.3,571.1z"/>
</g>
</svg>
