<?xml version="1.0" encoding="utf-8"?>
<!-- Generator: Adobe Illustrator 24.2.1, SVG Export Plug-In . SVG Version: 6.00 Build 0)  -->
<svg version="1.1" id="레이어_1" xmlns="http://www.w3.org/2000/svg" xmlns:xlink="http://www.w3.org/1999/xlink" x="0px"
	 y="0px" viewBox="0 0 765.4 963.8" style="enable-background:new 0 0 765.4 963.8;" xml:space="preserve">
<style type="text/css">
	.st0{fill:none;stroke:#000000;stroke-width:0.25;stroke-miterlimit:10;}
</style>
<polygon class="st0" points="723.7,5.7 617.7,24.4 615.8,13.9 562.8,23.2 561.4,15.3 494.3,27.1 495.7,35 442.6,44.4 444.5,54.9 
	391.5,64.3 368.3,64.3 315.3,54.9 317.1,44.4 264.1,35 265.5,27.1 198.4,15.3 197,23.2 143.9,13.9 142.1,24.4 36,5.7 5.7,177.4 
	125.8,198.6 127.7,188.1 180.7,197.4 182.1,189.5 194.1,191.6 182.9,254.7 236.5,264.2 235.1,272 288.1,281.4 285.8,294.5 
	351.9,306.2 407.8,306.2 474,294.5 471.6,281.4 524.7,272 523.3,264.2 576.8,254.7 565.7,191.6 577.6,189.5 579,197.4 632.1,188.1 
	633.9,198.6 754.1,177.4 "/>
<polygon class="st0" points="308.7,246.3 301.8,285.3 340.9,292.2 347.8,253.2 "/>
<polygon class="st0" points="257.8,223.6 251,262.7 290,269.6 296.9,230.5 "/>
<polygon class="st0" points="206.1,206.2 199.2,245.3 238.3,252.2 245.2,213.1 "/>
<polygon class="st0" points="293.8,175.1 286.9,214.2 326,221.1 332.9,182 "/>
<polygon class="st0" points="81.1,137.6 74.2,176.7 113.3,183.6 120.2,144.5 "/>
<polygon class="st0" points="27.9,128.2 21,167.3 60.1,174.2 67,135.1 "/>
<polygon class="st0" points="242.5,155.1 235.6,194.2 274.7,201.1 281.6,162 "/>
<polygon class="st0" points="136.1,136.3 129.3,175.4 168.3,182.3 175.2,143.2 "/>
<polygon class="st0" points="190.7,137.7 183.8,176.8 222.9,183.7 229.8,144.6 "/>
<polygon class="st0" points="303.2,121.9 296.3,161 335.4,167.9 342.3,128.8 "/>
<polygon class="st0" points="90.5,84.4 83.6,123.5 122.7,130.4 129.6,91.3 "/>
<polygon class="st0" points="37.3,75 30.4,114.1 69.5,121 76.4,81.9 "/>
<polygon class="st0" points="251.9,101.9 245,141 284.1,147.9 291,108.8 "/>
<polygon class="st0" points="145.5,83.2 138.6,122.2 177.7,129.1 184.6,90 "/>
<polygon class="st0" points="200.1,84.6 193.2,123.6 232.3,130.5 239.2,91.4 "/>
<polygon class="st0" points="312.6,68.7 305.7,107.8 344.8,114.7 351.6,75.6 "/>
<polygon class="st0" points="99.8,31.2 93,70.3 132,77.2 138.9,38.1 "/>
<polygon class="st0" points="46.7,21.9 39.8,60.9 78.9,67.8 85.8,28.7 "/>
<polygon class="st0" points="261.3,48.7 254.4,87.8 293.5,94.7 300.3,55.6 "/>
<polygon class="st0" points="154.9,30 148,69.1 187.1,75.9 194,36.9 "/>
<polygon class="st0" points="209.5,31.4 202.6,70.5 241.7,77.3 248.6,38.3 "/>
<path class="st0" d="M269.3,212.3c-0.3,1.9,0.9,3.6,2.8,3.9c1.9,0.3,3.6-0.9,3.9-2.8s-0.9-3.6-2.8-3.9
	C271.3,209.2,269.6,210.4,269.3,212.3L269.3,212.3z"/>
<path class="st0" d="M71.9,128.7c-0.3,1.9,0.9,3.6,2.8,3.9c1.9,0.3,3.6-0.9,3.9-2.8s-0.9-3.6-2.8-3.9
	C74,125.6,72.3,126.8,71.9,128.7L71.9,128.7z"/>
<path class="st0" d="M81.3,75.5c-0.3,1.9,0.9,3.6,2.8,3.9s3.6-0.9,3.9-2.8s-0.9-3.6-2.8-3.9C83.4,72.4,81.6,73.7,81.3,75.5
	L81.3,75.5z"/>
<path class="st0" d="M220.4,195.6c-0.3,1.9,0.9,3.6,2.8,3.9c1.9,0.3,3.6-0.9,3.9-2.8c0.3-1.9-0.9-3.6-2.8-3.9
	C222.5,192.5,220.7,193.8,220.4,195.6L220.4,195.6z"/>
<path class="st0" d="M293.8,102.1c-0.3,1.9,0.9,3.6,2.8,3.9s3.6-0.9,3.9-2.8s-0.9-3.6-2.8-3.9C295.9,99,294.1,100.2,293.8,102.1
	L293.8,102.1z"/>
<polygon class="st0" points="412,253.2 418.9,292.2 458,285.3 451.1,246.3 "/>
<polygon class="st0" points="462.8,230.5 469.7,269.6 508.8,262.7 501.9,223.6 "/>
<polygon class="st0" points="514.6,213.1 521.5,252.2 560.6,245.3 553.7,206.2 "/>
<polygon class="st0" points="426.9,182 433.8,221.1 472.8,214.2 465.9,175.1 "/>
<polygon class="st0" points="639.6,144.5 646.5,183.6 685.6,176.7 678.7,137.6 "/>
<polygon class="st0" points="692.8,135.1 699.6,174.2 738.7,167.3 731.8,128.2 "/>
<polygon class="st0" points="478.2,162 485.1,201.1 524.1,194.2 517.2,155.1 "/>
<polygon class="st0" points="584.5,143.2 591.4,182.3 630.5,175.4 623.6,136.3 "/>
<polygon class="st0" points="529.9,144.6 536.8,183.7 575.9,176.8 569,137.7 "/>
<polygon class="st0" points="417.5,128.8 424.4,167.9 463.5,161 456.6,121.9 "/>
<polygon class="st0" points="630.2,91.3 637.1,130.4 676.2,123.5 669.3,84.4 "/>
<polygon class="st0" points="683.4,81.9 690.3,121 729.4,114.1 722.5,75 "/>
<polygon class="st0" points="468.8,108.8 475.7,147.9 514.8,141 507.9,101.9 "/>
<polygon class="st0" points="575.1,90 582,129.1 621.1,122.2 614.2,83.2 "/>
<polygon class="st0" points="520.6,91.4 527.5,130.5 566.5,123.6 559.6,84.6 "/>
<polygon class="st0" points="408.1,75.6 415,114.7 454.1,107.8 447.2,68.7 "/>
<polygon class="st0" points="620.8,38.1 627.7,77.2 666.8,70.3 659.9,31.2 "/>
<polygon class="st0" points="674,28.7 680.9,67.8 720,60.9 713.1,21.9 "/>
<polygon class="st0" points="459.4,55.6 466.3,94.7 505.4,87.8 498.5,48.7 "/>
<polygon class="st0" points="565.8,36.9 572.7,75.9 611.7,69.1 604.9,30 "/>
<polygon class="st0" points="511.2,38.3 518.1,77.3 557.2,70.5 550.3,31.4 "/>
<path class="st0" d="M490.5,212.3c-0.3-1.9-2.1-3.1-3.9-2.8c-1.9,0.3-3.1,2.1-2.8,3.9c0.3,1.9,2.1,3.1,3.9,2.8
	C489.6,215.9,490.8,214.2,490.5,212.3L490.5,212.3z"/>
<path class="st0" d="M687.8,128.7c-0.3-1.9-2.1-3.1-3.9-2.8c-1.9,0.3-3.1,2.1-2.8,3.9c0.3,1.9,2.1,3.1,3.9,2.8
	C686.9,132.3,688.1,130.6,687.8,128.7L687.8,128.7z"/>
<path class="st0" d="M678.4,75.5c-0.3-1.9-2.1-3.1-3.9-2.8s-3.1,2.1-2.8,3.9c0.3,1.9,2.1,3.1,3.9,2.8
	C677.6,79.1,678.8,77.4,678.4,75.5L678.4,75.5z"/>
<path class="st0" d="M539.4,195.6c-0.3-1.9-2.1-3.1-3.9-2.8c-1.9,0.3-3.1,2.1-2.8,3.9c0.3,1.9,2.1,3.1,3.9,2.8
	C538.5,199.2,539.7,197.5,539.4,195.6L539.4,195.6z"/>
<path class="st0" d="M465.9,102.1c-0.3-1.9-2.1-3.1-3.9-2.8c-1.9,0.3-3.1,2.1-2.8,3.9c0.3,1.9,2.1,3.1,3.9,2.8
	C465.1,105.7,466.3,104,465.9,102.1L465.9,102.1z"/>
<polygon class="st0" points="723.7,283.5 617.7,302.1 615.8,291.6 562.8,301 561.4,293.1 494.3,304.9 495.7,312.8 442.6,322.1 
	444.5,332.7 391.5,342.1 368.3,342.1 315.3,332.7 317.1,322.1 264.1,312.8 265.5,304.9 198.4,293.1 197,301 143.9,291.6 
	142.1,302.1 36,283.5 5.7,455.2 125.8,476.3 127.7,465.8 180.7,475.2 182.1,467.3 194.1,469.4 182.9,532.5 236.5,541.9 235.1,549.8 
	288.1,559.1 285.8,572.3 351.9,583.9 407.8,583.9 474,572.3 471.6,559.1 524.7,549.8 523.3,541.9 576.8,532.5 565.7,469.4 
	577.6,467.3 579,475.2 632.1,465.8 633.9,476.3 754.1,455.2 "/>
<path class="st0" d="M269.3,490.1c-0.3,1.9,0.9,3.6,2.8,3.9s3.6-0.9,3.9-2.8s-0.9-3.6-2.8-3.9C271.3,487,269.6,488.2,269.3,490.1
	L269.3,490.1z"/>
<path class="st0" d="M71.9,406.5c-0.3,1.9,0.9,3.6,2.8,3.9s3.6-0.9,3.9-2.8s-0.9-3.6-2.8-3.9C74,403.4,72.3,404.6,71.9,406.5
	L71.9,406.5z"/>
<path class="st0" d="M81.3,353.3c-0.3,1.9,0.9,3.6,2.8,3.9s3.6-0.9,3.9-2.8s-0.9-3.6-2.8-3.9C83.4,350.2,81.6,351.4,81.3,353.3
	L81.3,353.3z"/>
<path class="st0" d="M220.4,473.4c-0.3,1.9,0.9,3.6,2.8,3.9c1.9,0.3,3.6-0.9,3.9-2.8c0.3-1.9-0.9-3.6-2.8-3.9
	S220.7,471.5,220.4,473.4L220.4,473.4z"/>
<path class="st0" d="M293.8,379.8c-0.3,1.9,0.9,3.6,2.8,3.9s3.6-0.9,3.9-2.8s-0.9-3.6-2.8-3.9C295.9,376.8,294.1,378,293.8,379.8
	L293.8,379.8z"/>
<path class="st0" d="M490.5,490.1c-0.3-1.9-2.1-3.1-3.9-2.8c-1.9,0.3-3.1,2.1-2.8,3.9c0.3,1.9,2.1,3.1,3.9,2.8
	C489.6,493.7,490.8,491.9,490.5,490.1L490.5,490.1z"/>
<path class="st0" d="M687.8,406.5c-0.3-1.9-2.1-3.1-3.9-2.8s-3.1,2.1-2.8,3.9c0.3,1.9,2.1,3.1,3.9,2.8
	C686.9,410.1,688.1,408.3,687.8,406.5L687.8,406.5z"/>
<path class="st0" d="M678.4,353.3c-0.3-1.9-2.1-3.1-3.9-2.8c-1.9,0.3-3.1,2.1-2.8,3.9c0.3,1.9,2.1,3.1,3.9,2.8
	C677.6,356.9,678.8,355.2,678.4,353.3L678.4,353.3z"/>
<path class="st0" d="M539.4,473.4c-0.3-1.9-2.1-3.1-3.9-2.8s-3.1,2.1-2.8,3.9c0.3,1.9,2.1,3.1,3.9,2.8
	C538.5,477,539.7,475.3,539.4,473.4L539.4,473.4z"/>
<path class="st0" d="M465.9,379.8c-0.3-1.9-2.1-3.1-3.9-2.8c-1.9,0.3-3.1,2.1-2.8,3.9c0.3,1.9,2.1,3.1,3.9,2.8
	C465.1,383.5,466.3,381.7,465.9,379.8L465.9,379.8z"/>
<polygon class="st0" points="449,625.5 461.2,612.4 500.3,605.5 513,595.1 552.2,588.2 567.7,593.7 606.7,586.8 622.7,594.9 
	714.9,578.7 717.5,593.3 730.6,591 725.5,562.5 619.5,581.2 617.7,570.7 564.7,580 563.2,572.1 496.1,583.9 497.5,591.8 
	444.5,601.2 446.3,611.7 395.9,620.6 395.9,632.4 410,632.4 "/>
<polygon class="st0" points="51,593.3 53.5,578.7 145.7,594.9 161.7,586.8 200.8,593.7 216.3,588.2 255.5,595.1 268.1,605.5 
	307.1,612.4 319.5,625.5 358.5,632.4 372.6,632.4 372.6,620.6 322.1,611.7 324,601.2 271,591.8 272.3,583.9 205.2,572.1 203.8,580 
	150.7,570.7 148.9,581.2 42.8,562.5 37.8,591 "/>
<polygon class="st0" points="734.9,601.9 740.5,634.1 648.3,650.4 632.3,642.2 593.2,649.1 577.7,643.6 559,646.9 555.5,673 
	562.4,712.1 523.3,719 510.6,729.5 471.5,736.4 459.8,752.1 420.7,759 342.7,759 303.6,752.1 291.8,736.4 252.8,729.5 240.1,719 
	201,712.1 207.9,673 204.4,646.9 185.6,643.6 170.1,649.1 131.1,642.2 115.1,650.4 22.8,634.1 28.5,601.9 15.4,599.6 7.5,644.2 
	127.6,665.4 129.5,654.9 182.5,664.2 183.9,656.3 195.9,658.4 184.7,721.5 238.3,731 237,738.8 290,748.2 287.6,761.3 353.7,773 
	409.6,773 475.8,761.3 473.5,748.2 526.5,738.8 525.2,731 578.7,721.5 567.5,658.4 579.4,656.3 580.8,664.2 633.9,654.9 
	635.7,665.4 755.9,644.2 748,599.6 "/>
<polygon class="st0" points="461.2,807.5 473.4,794.4 512.5,787.5 525.2,777.1 564.3,770.2 579.8,775.7 618.9,768.8 634.8,776.9 
	727.1,760.7 729.7,775.3 742.7,773 737.7,744.5 631.7,763.2 629.8,752.7 576.8,762 575.4,754.1 508.3,765.9 509.7,773.8 
	456.6,783.2 458.5,793.7 408.1,802.6 408.1,814.4 422.1,814.4 "/>
<polygon class="st0" points="63.1,775.3 65.7,760.7 157.9,776.9 173.9,768.8 213,775.7 228.5,770.2 267.6,777.1 280.3,787.5 
	319.3,794.4 331.6,807.5 370.6,814.4 384.7,814.4 384.7,802.6 334.3,793.7 336.1,783.2 283.1,773.8 284.5,765.9 217.4,754.1 
	216,762 162.9,752.7 161.1,763.2 55,744.5 50,773 "/>
<polygon class="st0" points="733,783.9 738.7,816.1 646.5,832.4 630.5,824.2 591.4,831.1 575.9,825.6 557.2,828.9 553.7,855 
	560.6,894.1 521.5,901 508.8,911.5 469.7,918.4 458,934.1 418.9,941 340.9,941 301.8,934.1 290,918.4 251,911.5 238.3,901 
	199.2,894.1 206.1,855 202.6,828.9 183.8,825.6 168.3,831.1 129.3,824.2 113.3,832.4 21,816.1 26.7,783.9 13.5,781.6 5.7,826.2 
	125.8,847.4 127.7,836.9 180.7,846.2 182.1,838.3 194.1,840.4 182.9,903.5 236.5,913 235.1,920.8 288.1,930.2 285.8,943.3 
	351.9,955 407.8,955 474,943.3 471.6,930.2 524.7,920.8 523.3,913 576.8,903.5 565.7,840.4 577.6,838.3 579,846.2 632.1,836.9 
	633.9,847.4 754.1,826.2 746.2,781.6 "/>
</svg>
