<?xml version="1.0" encoding="utf-8"?>
<!-- Generator: Adobe Illustrator 24.2.1, SVG Export Plug-In . SVG Version: 6.00 Build 0)  -->
<svg version="1.1" id="레이어_1" xmlns="http://www.w3.org/2000/svg" xmlns:xlink="http://www.w3.org/1999/xlink" x="0px"
	 y="0px" viewBox="0 0 765.4 963.8" style="enable-background:new 0 0 765.4 963.8;" xml:space="preserve">
<style type="text/css">
	.st0{fill:none;stroke:#000000;stroke-width:0.25;stroke-miterlimit:10;}
</style>
<polygon class="st0" points="726.5,8.5 620.5,27.2 618.6,16.7 565.6,26 564.2,18.1 497.1,29.9 498.5,37.8 445.4,47.2 447.3,57.7 
	394.3,67.1 371.1,67.1 318.1,57.7 319.9,47.2 266.9,37.8 268.3,29.9 201.2,18.1 199.8,26 146.7,16.7 144.9,27.2 38.8,8.5 8.5,180.2 
	128.6,201.4 130.5,190.9 183.5,200.2 184.9,192.3 196.9,194.4 185.7,257.5 239.3,267 237.9,274.8 290.9,284.2 288.6,297.3 
	354.7,309 410.6,309 476.8,297.3 474.4,284.2 527.5,274.8 526.1,267 579.6,257.5 568.5,194.4 580.4,192.3 581.8,200.2 634.9,190.9 
	636.7,201.4 756.9,180.2 "/>
<polygon class="st0" points="311.5,249.1 304.6,288.1 343.7,295 350.6,256 "/>
<polygon class="st0" points="260.6,226.4 253.8,265.5 292.8,272.4 299.7,233.3 "/>
<polygon class="st0" points="208.9,209 202,248.1 241.1,255 248,215.9 "/>
<polygon class="st0" points="296.6,177.9 289.7,217 328.8,223.9 335.7,184.8 "/>
<polygon class="st0" points="83.9,140.4 77,179.5 116.1,186.4 123,147.3 "/>
<polygon class="st0" points="30.7,131 23.8,170.1 62.9,177 69.8,137.9 "/>
<polygon class="st0" points="245.3,157.9 238.4,197 277.5,203.9 284.4,164.8 "/>
<polygon class="st0" points="138.9,139.1 132.1,178.2 171.1,185.1 178,146 "/>
<polygon class="st0" points="193.5,140.5 186.6,179.6 225.7,186.5 232.6,147.4 "/>
<polygon class="st0" points="306,124.7 299.1,163.8 338.2,170.7 345.1,131.6 "/>
<polygon class="st0" points="93.3,87.2 86.4,126.3 125.5,133.2 132.4,94.1 "/>
<polygon class="st0" points="40.1,77.8 33.2,116.9 72.3,123.8 79.2,84.7 "/>
<polygon class="st0" points="254.7,104.7 247.8,143.8 286.9,150.7 293.8,111.6 "/>
<polygon class="st0" points="148.3,86 141.4,125 180.5,131.9 187.4,92.8 "/>
<polygon class="st0" points="202.9,87.4 196,126.4 235.1,133.3 242,94.2 "/>
<polygon class="st0" points="315.4,71.5 308.5,110.6 347.6,117.5 354.4,78.4 "/>
<polygon class="st0" points="102.6,34 95.8,73.1 134.8,80 141.7,40.9 "/>
<polygon class="st0" points="49.5,24.7 42.6,63.7 81.7,70.6 88.6,31.5 "/>
<polygon class="st0" points="264.1,51.5 257.2,90.6 296.3,97.5 303.1,58.4 "/>
<polygon class="st0" points="157.7,32.8 150.8,71.9 189.9,78.7 196.8,39.7 "/>
<polygon class="st0" points="212.3,34.2 205.4,73.3 244.5,80.1 251.4,41.1 "/>
<polygon class="st0" points="414.8,256 421.7,295 460.8,288.1 453.9,249.1 "/>
<polygon class="st0" points="465.6,233.3 472.5,272.4 511.6,265.5 504.7,226.4 "/>
<polygon class="st0" points="517.4,215.9 524.3,255 563.4,248.1 556.5,209 "/>
<polygon class="st0" points="429.7,184.8 436.6,223.9 475.6,217 468.7,177.9 "/>
<polygon class="st0" points="642.4,147.3 649.3,186.4 688.4,179.5 681.5,140.4 "/>
<polygon class="st0" points="695.6,137.9 702.4,177 741.5,170.1 734.6,131 "/>
<polygon class="st0" points="481,164.8 487.9,203.9 526.9,197 520,157.9 "/>
<polygon class="st0" points="587.3,146 594.2,185.1 633.3,178.2 626.4,139.1 "/>
<polygon class="st0" points="532.7,147.4 539.6,186.5 578.7,179.6 571.8,140.5 "/>
<polygon class="st0" points="420.3,131.6 427.2,170.7 466.3,163.8 459.4,124.7 "/>
<polygon class="st0" points="633,94.1 639.9,133.2 679,126.3 672.1,87.2 "/>
<polygon class="st0" points="686.2,84.7 693.1,123.8 732.2,116.9 725.3,77.8 "/>
<polygon class="st0" points="471.6,111.6 478.5,150.7 517.6,143.8 510.7,104.7 "/>
<polygon class="st0" points="577.9,92.8 584.8,131.9 623.9,125 617,86 "/>
<polygon class="st0" points="523.4,94.2 530.3,133.3 569.3,126.4 562.4,87.4 "/>
<polygon class="st0" points="410.9,78.4 417.8,117.5 456.9,110.6 450,71.5 "/>
<polygon class="st0" points="623.6,40.9 630.5,80 669.6,73.1 662.7,34 "/>
<polygon class="st0" points="676.8,31.5 683.7,70.6 722.8,63.7 715.9,24.7 "/>
<polygon class="st0" points="462.2,58.4 469.1,97.5 508.2,90.6 501.3,51.5 "/>
<polygon class="st0" points="568.6,39.7 575.5,78.7 614.5,71.9 607.7,32.8 "/>
<polygon class="st0" points="514,41.1 520.9,80.1 560,73.3 553.1,34.2 "/>
<path class="st0" d="M14.2,173.3c-0.3,1.9,0.9,3.6,2.8,3.9c1.9,0.3,3.6-0.9,3.9-2.8s-0.9-3.6-2.8-3.9
	C16.3,170.2,14.6,171.4,14.2,173.3L14.2,173.3z"/>
<path class="st0" d="M41.9,17c-0.3,1.9,0.9,3.6,2.8,3.9c1.9,0.3,3.6-0.9,3.9-2.8c0.3-1.9-0.9-3.6-2.8-3.9C44,13.9,42.3,15.1,41.9,17
	L41.9,17z"/>
<path class="st0" d="M191.6,250.5c-0.3,1.9,0.9,3.6,2.8,3.9c1.9,0.3,3.6-0.9,3.9-2.8s-0.9-3.6-2.8-3.9
	C193.7,247.4,192,248.6,191.6,250.5L191.6,250.5z"/>
<path class="st0" d="M567.1,250.2c-0.3,1.9,0.9,3.6,2.8,3.9c1.9,0.3,3.6-0.9,3.9-2.8c0.3-1.9-0.9-3.6-2.8-3.9
	C569.2,247.1,567.5,248.3,567.1,250.2L567.1,250.2z"/>
<path class="st0" d="M744.4,173.1c-0.3,1.9,0.9,3.6,2.8,3.9c1.9,0.3,3.6-0.9,3.9-2.8c0.3-1.9-0.9-3.6-2.8-3.9
	C746.5,170,744.8,171.2,744.4,173.1L744.4,173.1z"/>
<path class="st0" d="M716.8,17c-0.3,1.9,0.9,3.6,2.8,3.9c1.9,0.3,3.6-0.9,3.9-2.8c0.3-1.9-0.9-3.6-2.8-3.9
	C718.9,13.9,717.2,15.1,716.8,17L716.8,17z"/>
<path class="st0" d="M503.1,35.8c-0.3,1.9,0.9,3.6,2.8,3.9c1.9,0.3,3.6-0.9,3.9-2.8c0.3-1.9-0.9-3.6-2.8-3.9
	C505.2,32.6,503.5,33.9,503.1,35.8L503.1,35.8z"/>
<path class="st0" d="M255.8,35.9c-0.3,1.9,0.9,3.6,2.8,3.9c1.9,0.3,3.6-0.9,3.9-2.8c0.3-1.9-0.9-3.6-2.8-3.9
	C257.9,32.8,256.2,34,255.8,35.9L255.8,35.9z"/>
<path class="st0" d="M379.3,294.5c-0.3,1.9,0.9,3.6,2.8,3.9c1.9,0.3,3.6-0.9,3.9-2.8c0.3-1.9-0.9-3.6-2.8-3.9
	C381.4,291.3,379.7,292.5,379.3,294.5L379.3,294.5z"/>
<polygon class="st0" points="101.1,365.6 117.9,359.3 156,370.5 172,366.8 210.1,378 221.5,389.8 259.6,401 270.3,415.3 
	360.1,441.9 348.7,480.8 361.4,484.5 376.8,432.1 273.6,401.7 276.5,391.4 224.9,376.2 227.2,368.5 161.8,349.3 159.6,357 
	107.8,341.8 104.9,352 55.7,337.6 50.5,348.1 63.1,354.4 "/>
<path class="st0" d="M363.5,434.7c-1.5,2.1-1.1,4.8,1,6.3c2.1,1.5,4.8,1.1,6.3-1c1.5-2.1,1.1-4.8-1-6.3
	C367.8,432.2,365.1,432.7,363.5,434.7L363.5,434.7z"/>
<path class="st0" d="M163.7,356.5c-1.5,2.1-1.1,4.8,1,6.3c2.1,1.5,4.8,1.1,6.3-1s1.1-4.8-1-6.3C168,354,165.3,354.5,163.7,356.5
	L163.7,356.5z"/>
<polygon class="st0" points="23.5,320.4 35.2,281.6 124.8,308.5 141.7,302.3 179.7,313.8 195.7,310.1 233.7,321.6 245.1,333.4 
	283,344.8 293.7,359.3 331.6,370.7 345.7,372.4 347,360.7 298,345.9 301,335.7 249.5,320.1 251.8,312.5 186.6,292.8 184.3,300.5 
	132.6,285 129.6,295.3 26.4,264.2 10.7,316.6 "/>
<path class="st0" d="M27.4,272.7c-0.7,2.5,0.6,4.9,3.1,5.6c2.5,0.7,4.9-0.6,5.6-3.1c0.7-2.5-0.6-4.9-3.1-5.6
	C30.7,268.9,28.2,270.3,27.4,272.7L27.4,272.7z"/>
<path class="st0" d="M237.6,316.6c-0.7,2.5,0.6,4.9,3.1,5.6c2.5,0.7,4.9-0.6,5.6-3.1s-0.6-4.9-3.1-5.6
	C240.9,312.8,238.5,314.1,237.6,316.6L237.6,316.6z"/>
<path class="st0" d="M733.1,362.2l6.8,38.6l-92.2,16.3l-16-8.2l-39.1,6.9l-15.5-5.5l-18.7,3.3l-3.5,26.1l6.9,39.1l-39.1,6.9
	L510,496.2l-39.1,6.9l-11.7,15.7l-39.1,6.9h-30.6c0-4.7-3.8-8.5-8.5-8.5s-8.5,3.8-8.5,8.5h-30.5l-39.1-6.9l-11.8-15.7l-39-6.9
	l-12.7-10.5l-39.1-6.9l6.9-39.1l-3.5-26.1l-18.8-3.3l-15.5,5.5l-39-6.9l-16,8.2l-92.3-16.3l6.8-38.6l-13.1-2.3l-9,51L127,432.1
	l1.9-10.5l53,9.3l1.4-7.9l12,2.1l-11.2,63.1l53.6,9.5l-1.4,7.8l53,9.4L287,528l66.1,11.7H409l66.2-11.7l-2.4-13.1l53.1-9.4l-1.4-7.8
	l53.5-9.5l-11.1-63.1l11.9-2.1l1.4,7.9l53.1-9.3l1.8,10.5l120.2-21.2l-9-51L733.1,362.2z"/>
<path class="st0" d="M11.5,403.9c-0.4,2.5,1.2,4.8,3.7,5.2s4.8-1.2,5.2-3.7c0.4-2.5-1.2-4.8-3.7-5.2C14.3,399.7,12,401.3,11.5,403.9
	L11.5,403.9z"/>
<path class="st0" d="M188.9,481c-0.4,2.5,1.2,4.8,3.7,5.2c2.5,0.4,4.8-1.2,5.2-3.7c0.4-2.5-1.2-4.8-3.7-5.2
	C191.7,476.9,189.4,478.5,188.9,481L188.9,481z"/>
<path class="st0" d="M564.3,480.7c-0.4,2.5,1.2,4.8,3.7,5.2c2.5,0.4,4.8-1.2,5.2-3.7c0.4-2.5-1.2-4.8-3.7-5.2
	C567.1,476.6,564.9,478.2,564.3,480.7L564.3,480.7z"/>
<path class="st0" d="M741.7,403.6c-0.4,2.5,1.2,4.8,3.7,5.2c2.5,0.4,4.8-1.2,5.2-3.7c0.4-2.5-1.2-4.8-3.7-5.2
	C744.5,399.5,742.2,401.1,741.7,403.6L741.7,403.6z"/>
<path class="st0" d="M376.6,525c-0.4,2.5,1.2,4.8,3.7,5.2c2.5,0.4,4.8-1.2,5.2-3.7c0.4-2.5-1.2-4.8-3.7-5.2
	C379.4,520.8,377.1,522.4,376.6,525L376.6,525z"/>
<polygon class="st0" points="729.3,627.4 623.3,646.1 621.4,635.6 568.4,644.9 567,637 499.9,648.8 501.3,656.7 448.2,666.1 
	450.1,676.6 397.1,686 373.9,686 320.9,676.6 322.7,666.1 269.7,656.7 271.1,648.8 204,637 202.6,644.9 149.5,635.6 147.7,646.1 
	41.6,627.4 11.3,799.1 131.4,820.3 133.3,809.8 186.3,819.1 187.7,811.2 199.7,813.3 188.5,876.4 242.1,885.9 240.7,893.7 
	293.7,903.1 291.4,916.2 357.5,927.9 413.4,927.9 479.6,916.2 477.2,903.1 530.3,893.7 528.9,885.9 582.4,876.4 571.3,813.3 
	583.2,811.2 584.6,819.1 637.7,809.8 639.5,820.3 759.7,799.1 "/>
<path class="st0" d="M16.9,792.2c-0.3,1.9,0.9,3.6,2.8,3.9c1.9,0.3,3.6-0.9,3.9-2.8c0.3-1.9-0.9-3.6-2.8-3.9
	C19.1,789.1,17.3,790.3,16.9,792.2L16.9,792.2z"/>
<path class="st0" d="M44.6,635.9c-0.3,1.9,0.9,3.6,2.8,3.9c1.9,0.3,3.6-0.9,3.9-2.8c0.3-1.9-0.9-3.6-2.8-3.9
	C46.7,632.8,45,634,44.6,635.9L44.6,635.9z"/>
<path class="st0" d="M194.4,869.3c-0.3,1.9,0.9,3.6,2.8,3.9s3.6-0.9,3.9-2.8c0.3-1.9-0.9-3.6-2.8-3.9
	C196.5,866.2,194.8,867.4,194.4,869.3L194.4,869.3z"/>
<path class="st0" d="M569.8,869.1c-0.3,1.9,0.9,3.6,2.8,3.9c1.9,0.3,3.6-0.9,3.9-2.8c0.3-1.9-0.9-3.6-2.8-3.9
	C571.9,866,570.2,867.2,569.8,869.1L569.8,869.1z"/>
<path class="st0" d="M747.2,792c-0.3,1.9,0.9,3.6,2.8,3.9s3.6-0.9,3.9-2.8c0.3-1.9-0.9-3.6-2.8-3.9
	C749.3,788.9,747.6,790.1,747.2,792L747.2,792z"/>
<path class="st0" d="M719.6,635.9c-0.3,1.9,0.9,3.6,2.8,3.9s3.6-0.9,3.9-2.8c0.3-1.9-0.9-3.6-2.8-3.9
	C721.7,632.8,720,634,719.6,635.9L719.6,635.9z"/>
<path class="st0" d="M505.9,654.6c-0.3,1.9,0.9,3.6,2.8,3.9c1.9,0.3,3.6-0.9,3.9-2.8c0.3-1.9-0.9-3.6-2.8-3.9
	C508,651.5,506.3,652.7,505.9,654.6L505.9,654.6z"/>
<path class="st0" d="M258.6,654.7c-0.3,1.9,0.9,3.6,2.8,3.9c1.9,0.3,3.6-0.9,3.9-2.8c0.3-1.9-0.9-3.6-2.8-3.9
	C260.7,651.6,259,652.8,258.6,654.7L258.6,654.7z"/>
<path class="st0" d="M382.1,913.3c-0.3,1.9,0.9,3.6,2.8,3.9c1.9,0.3,3.6-0.9,3.9-2.8s-0.9-3.6-2.8-3.9
	C384.2,910.2,382.5,911.4,382.1,913.3L382.1,913.3z"/>
<polygon class="st0" points="455.3,461.1 462.5,444.7 497.1,425.2 505.6,411.2 540.2,391.8 556.7,391.8 591.3,372.4 609,374.8 
	690.7,328.9 710.6,364.3 722.2,357.8 695.4,310.1 601.5,362.9 596.2,353.6 549.3,379.9 545.4,372.9 486,406.2 489.9,413.2 
	442.9,439.7 448.2,449 403.5,474.1 407.4,485.2 420.7,480.5 "/>
<path class="st0" d="M687.9,321.5c0.5,2.5,2.7,4.1,5.3,3.7c2.5-0.5,4.1-2.7,3.7-5.3s-2.7-4.1-5.3-3.7
	C689.2,316.7,687.6,319,687.9,321.5L687.9,321.5z"/>
<path class="st0" d="M492.4,410c0.5,2.5,2.7,4.1,5.3,3.7c2.5-0.5,4.1-2.7,3.7-5.3s-2.7-4.1-5.3-3.7
	C493.7,405.1,492.1,407.4,492.4,410L492.4,410z"/>
<polygon class="st0" points="420.1,397.9 410.8,358.4 501.9,336.9 513.4,323.2 552.1,314.1 564.2,302.9 602.8,293.8 618.6,298.4 
	657.2,289.3 673.6,296.5 712.2,287.5 725.2,281.9 720.5,271.1 670.7,282.8 668.2,272.4 615.8,284.7 613.9,276.9 547.6,292.5 
	549.4,300.3 497,312.7 499.5,323.1 394.6,347.7 407.1,401 "/>
<path class="st0" d="M399.7,354.6c0.6,2.5,3,3.9,5.5,3.3c2.5-0.6,3.9-3,3.3-5.5c-0.6-2.5-3-3.9-5.5-3.3
	C400.6,349.7,399.1,352.1,399.7,354.6L399.7,354.6z"/>
<path class="st0" d="M603.7,287.6c0.6,2.5,3,3.9,5.5,3.3s3.9-3,3.3-5.5c-0.6-2.5-3-3.9-5.5-3.3C604.6,282.6,603.2,285,603.7,287.6
	L603.7,287.6z"/>
<path class="st0" d="M735.3,464.3l6.8,38.6l-92.2,16.3l-16-8.2l-39.1,6.9l-15.5-5.5l-18.7,3.3l-3.5,26.1l6.9,39.1l-39.1,6.9
	l-12.7,10.5l-39.1,6.9l-11.7,15.7l-39.1,6.9h-30.6c0-4.7-3.8-8.5-8.5-8.5s-8.5,3.8-8.5,8.5h-30.5l-39.1-6.9l-11.8-15.7l-39-6.9
	l-12.7-10.5l-39.1-6.9l6.9-39.1l-3.5-26.1l-18.8-3.3l-15.5,5.5l-39-6.9l-16,8.2l-92.3-16.3l6.8-38.6L18.1,462l-9,51l120.1,21.2
	l1.9-10.5l53,9.3l1.4-7.9l12,2.1l-11.2,63.1l53.6,9.5l-1.4,7.8l53,9.4l-2.3,13.1l66.1,11.7h55.9l66.2-11.7L475,617l53.1-9.4
	l-1.4-7.8l53.5-9.5l-11.1-63.1l11.9-2.1l1.4,7.9l53.1-9.3l1.8,10.5L757.5,513l-9-51L735.3,464.3z"/>
<path class="st0" d="M13.7,506c-0.4,2.5,1.2,4.8,3.7,5.2c2.5,0.4,4.8-1.2,5.2-3.7c0.4-2.5-1.2-4.8-3.7-5.2
	C16.5,501.8,14.2,503.4,13.7,506L13.7,506z"/>
<path class="st0" d="M191.2,583.1c-0.4,2.5,1.2,4.8,3.7,5.2s4.8-1.2,5.2-3.7c0.4-2.5-1.2-4.8-3.7-5.2
	C194,579,191.7,580.6,191.2,583.1L191.2,583.1z"/>
<path class="st0" d="M566.6,582.8c-0.4,2.5,1.2,4.8,3.7,5.2c2.5,0.4,4.8-1.2,5.2-3.7c0.4-2.5-1.2-4.8-3.7-5.2
	C569.4,578.7,567.1,580.3,566.6,582.8L566.6,582.8z"/>
<path class="st0" d="M743.9,505.8c-0.4,2.5,1.2,4.8,3.7,5.2c2.5,0.4,4.8-1.2,5.2-3.7s-1.2-4.8-3.7-5.2
	C746.8,501.6,744.5,503.2,743.9,505.8L743.9,505.8z"/>
<path class="st0" d="M378.8,627.1c-0.4,2.5,1.2,4.8,3.7,5.2c2.5,0.4,4.8-1.2,5.2-3.7c0.4-2.5-1.2-4.8-3.7-5.2
	C381.6,623,379.4,624.6,378.8,627.1L378.8,627.1z"/>
</svg>
