<?xml version="1.0" encoding="utf-8"?>
<!-- Generator: Adobe Illustrator 24.2.1, SVG Export Plug-In . SVG Version: 6.00 Build 0)  -->
<svg version="1.1" id="레이어_1" xmlns="http://www.w3.org/2000/svg" xmlns:xlink="http://www.w3.org/1999/xlink" x="0px"
	 y="0px" viewBox="0 0 850.4 1133.9" style="enable-background:new 0 0 850.4 1133.9;" xml:space="preserve">
<style type="text/css">
	.st0{fill:none;stroke:#000000;stroke-width:0.25;stroke-miterlimit:10;}
</style>
<polygon class="st0" points="763.8,8.7 643.5,29.9 641.6,19.4 588.5,28.8 586.9,19.8 533.7,29.2 535.3,38.2 482.1,47.6 483.9,57.8 
	416.6,69.7 388.4,69.7 321.1,57.8 322.9,47.6 269.7,38.2 271.3,29.2 218.1,19.8 216.5,28.8 163.4,19.4 161.5,29.9 41.2,8.7 8,196.4 
	128.4,217.7 130.3,206.9 183.4,216.3 184.8,208.3 198.2,210.6 186.8,275.4 253.3,287.1 252,294.2 305.2,303.5 302.8,317.2 
	369.9,329.1 435.1,329.1 502.2,317.2 499.8,303.5 553,294.2 551.7,287.1 618.2,275.4 606.8,210.6 620.2,208.3 621.6,216.3 
	674.7,206.9 676.6,217.7 797,196.4 "/>
<polygon class="st0" points="320.5,258 313.6,297.1 352.7,304 359.6,264.9 "/>
<polygon class="st0" points="269.7,235.3 262.8,274.4 301.9,281.3 308.8,242.2 "/>
<polygon class="st0" points="217.9,218 211,257 250.1,263.9 257,224.9 "/>
<polygon class="st0" points="305.6,186.8 298.7,225.9 337.8,232.8 344.7,193.7 "/>
<polygon class="st0" points="92.9,149.3 86,188.4 125.1,195.3 132,156.2 "/>
<polygon class="st0" points="39.7,139.9 32.8,179 71.9,185.9 78.8,146.8 "/>
<polygon class="st0" points="254.3,166.8 247.4,205.9 286.5,212.8 293.4,173.7 "/>
<polygon class="st0" points="148,148.1 141.1,187.1 180.2,194 187.1,154.9 "/>
<polygon class="st0" points="202.6,149.5 195.7,188.5 234.8,195.4 241.6,156.3 "/>
<polygon class="st0" points="315,133.6 308.1,172.7 347.2,179.6 354.1,140.5 "/>
<polygon class="st0" points="102.3,96.1 95.4,135.2 134.5,142.1 141.4,103 "/>
<polygon class="st0" points="49.1,86.8 42.2,125.8 81.3,132.7 88.2,93.6 "/>
<polygon class="st0" points="263.7,113.6 256.8,152.7 295.9,159.6 302.8,120.5 "/>
<polygon class="st0" points="157.4,94.9 150.5,134 189.5,140.8 196.4,101.8 "/>
<polygon class="st0" points="211.9,96.3 205,135.4 244.1,142.3 251,103.2 "/>
<polygon class="st0" points="324.4,80.5 317.5,119.5 356.6,126.4 363.5,87.4 "/>
<polygon class="st0" points="111.7,43 104.8,82 143.9,88.9 150.8,49.8 "/>
<polygon class="st0" points="58.5,33.6 51.6,72.7 90.7,79.6 97.6,40.5 "/>
<polygon class="st0" points="273.1,60.5 266.2,99.5 305.3,106.4 312.2,67.3 "/>
<polygon class="st0" points="166.7,41.7 159.8,80.8 198.9,87.7 205.8,48.6 "/>
<polygon class="st0" points="221.3,43.1 214.4,82.2 253.5,89.1 260.4,50 "/>
<path class="st0" d="M47,20.9c-0.6,1.8,0.3,3.7,2.1,4.3c1.8,0.6,3.7-0.3,4.3-2.1c0.6-1.8-0.3-3.7-2.1-4.3
	C49.6,18.2,47.8,19.1,47,20.9L47,20.9z"/>
<path class="st0" d="M17.8,186.5c-0.6,1.8,0.3,3.7,2.1,4.3c1.8,0.6,3.7-0.3,4.3-2.1s-0.3-3.7-2.1-4.3
	C20.4,183.8,18.6,184.7,17.8,186.5L17.8,186.5z"/>
<path class="st0" d="M196.5,265.6c-0.6,1.8,0.3,3.7,2.1,4.3c1.8,0.6,3.7-0.3,4.3-2.1s-0.3-3.7-2.1-4.3
	C199.1,262.9,197.3,263.8,196.5,265.6L196.5,265.6z"/>
<path class="st0" d="M240.7,34.4c-0.6,1.8,0.3,3.7,2.1,4.3c1.8,0.6,3.7-0.3,4.3-2.1c0.6-1.8-0.3-3.7-2.1-4.3
	C243.4,31.7,241.5,32.6,240.7,34.4L240.7,34.4z"/>
<path class="st0" d="M312.7,306.9c-0.6,1.8,0.3,3.7,2.1,4.3c1.8,0.6,3.7-0.3,4.3-2.1s-0.3-3.7-2.1-4.3
	C315.3,304.2,313.4,305.1,312.7,306.9L312.7,306.9z"/>
<polygon class="st0" points="445.4,264.9 452.3,304 491.4,297.1 484.5,258 "/>
<polygon class="st0" points="496.3,242.2 503.1,281.3 542.2,274.4 535.3,235.3 "/>
<polygon class="st0" points="548,224.9 554.9,263.9 594,257 587.1,218 "/>
<polygon class="st0" points="460.3,193.7 467.2,232.8 506.3,225.9 499.4,186.8 "/>
<polygon class="st0" points="673,156.2 679.9,195.3 719,188.4 712.1,149.3 "/>
<polygon class="st0" points="726.2,146.8 733.1,185.9 772.2,179 765.3,139.9 "/>
<polygon class="st0" points="511.6,173.7 518.5,212.8 557.6,205.9 550.7,166.8 "/>
<polygon class="st0" points="618,154.9 624.8,194 663.9,187.1 657,148.1 "/>
<polygon class="st0" points="563.4,156.3 570.3,195.4 609.3,188.5 602.4,149.5 "/>
<polygon class="st0" points="450.9,140.5 457.8,179.6 496.9,172.7 490,133.6 "/>
<polygon class="st0" points="663.6,103 670.5,142.1 709.6,135.2 702.7,96.1 "/>
<polygon class="st0" points="716.8,93.6 723.7,132.7 762.8,125.8 755.9,86.8 "/>
<polygon class="st0" points="502.2,120.5 509.1,159.6 548.2,152.7 541.3,113.6 "/>
<polygon class="st0" points="608.6,101.8 615.5,140.8 654.5,134 647.7,94.9 "/>
<polygon class="st0" points="554,103.2 560.9,142.3 600,135.4 593.1,96.3 "/>
<polygon class="st0" points="441.5,87.4 448.4,126.4 487.5,119.5 480.6,80.5 "/>
<polygon class="st0" points="654.3,49.8 661.1,88.9 700.2,82 693.3,43 "/>
<polygon class="st0" points="707.4,40.5 714.3,79.6 753.4,72.7 746.5,33.6 "/>
<polygon class="st0" points="492.8,67.3 499.7,106.4 538.8,99.5 531.9,60.5 "/>
<polygon class="st0" points="599.2,48.6 606.1,87.7 645.2,80.8 638.3,41.7 "/>
<polygon class="st0" points="544.6,50 551.5,89.1 590.6,82.2 583.7,43.1 "/>
<path class="st0" d="M758,20.9c0.6,1.8-0.3,3.7-2.1,4.3c-1.8,0.6-3.7-0.3-4.3-2.1c-0.6-1.8,0.3-3.7,2.1-4.3
	C755.4,18.2,757.3,19.1,758,20.9L758,20.9z"/>
<path class="st0" d="M787.2,186.5c0.6,1.8-0.3,3.7-2.1,4.3c-1.8,0.6-3.7-0.3-4.3-2.1c-0.6-1.8,0.3-3.7,2.1-4.3
	C784.6,183.8,786.4,184.7,787.2,186.5L787.2,186.5z"/>
<path class="st0" d="M608.5,265.6c0.6,1.8-0.3,3.7-2.1,4.3c-1.8,0.6-3.7-0.3-4.3-2.1c-0.6-1.8,0.3-3.7,2.1-4.3
	C605.9,262.9,607.8,263.8,608.5,265.6L608.5,265.6z"/>
<path class="st0" d="M564.3,34.4c0.6,1.8-0.3,3.7-2.1,4.3c-1.8,0.6-3.7-0.3-4.3-2.1c-0.6-1.8,0.3-3.7,2.1-4.3
	C561.7,31.7,563.5,32.6,564.3,34.4L564.3,34.4z"/>
<path class="st0" d="M492.3,306.9c0.6,1.8-0.3,3.7-2.1,4.3c-1.8,0.6-3.7-0.3-4.3-2.1s0.3-3.7,2.1-4.3
	C489.7,304.2,491.6,305.1,492.3,306.9L492.3,306.9z"/>
<polygon class="st0" points="305.9,350.1 307.7,339.9 254.6,330.5 256.1,321.5 202.9,312.2 201.3,321.1 148.2,311.7 146.4,322.3 
	26,301 15.3,361.9 36.3,365.6 43.3,325.9 135.6,342.1 151.5,334 190.6,340.9 206.1,335.4 245.2,342.3 257.9,352.8 297,359.6 
	309.2,372.8 348.3,379.7 373.2,379.7 373.2,362 "/>
<circle class="st0" cx="35.1" cy="314.4" r="4.7"/>
<circle class="st0" cx="228.8" cy="327.8" r="4.7"/>
<polygon class="st0" points="425.2,699.1 438.8,684.8 439,645.2 447.2,630.9 447.4,591.2 487.1,591.4 512.4,564.6 504.4,550.2 
	504.6,510.5 493.9,496.1 494.4,402.5 539.9,402.7 540,381.3 473,380.9 472.4,503.2 483.3,503.2 483,557.2 491.1,557.2 491,570.8 
	425.3,570.4 424.9,637.9 417.8,637.9 417.5,691.9 403.5,691.8 403.2,760 406.3,778.1 431,773.9 425,738.8 "/>
<circle class="st0" cx="483.9" cy="392.3" r="4.7"/>
<circle class="st0" cx="436" cy="581.7" r="4.7"/>
<circle class="st0" cx="414.8" cy="703.2" r="4.7"/>
<polygon class="st0" points="771.4,749.6 651.1,770.8 649.2,760.3 596.1,769.7 594.5,760.7 541.3,770.1 542.9,779.1 489.7,788.4 
	491.5,798.7 424.2,810.6 396,810.6 328.7,798.7 330.5,788.4 277.3,779.1 278.9,770.1 225.7,760.7 224.1,769.7 171,760.3 
	169.1,770.8 48.8,749.6 15.6,937.3 136,958.5 137.9,947.8 191,957.1 192.4,949.2 205.8,951.5 194.4,1016.3 260.9,1028 259.6,1035 
	312.8,1044.4 310.4,1058.1 377.5,1069.9 442.7,1069.9 509.8,1058.1 507.4,1044.4 560.6,1035 559.3,1028 625.8,1016.3 614.4,951.5 
	627.8,949.2 629.2,957.1 682.3,947.8 684.2,958.5 804.6,937.3 "/>
<path class="st0" d="M54.6,761.8c-0.6,1.8,0.3,3.7,2.1,4.3c1.8,0.6,3.7-0.3,4.3-2.1c0.6-1.8-0.3-3.7-2.1-4.3
	C57.2,759.1,55.3,760,54.6,761.8L54.6,761.8z"/>
<path class="st0" d="M25.4,927.3c-0.6,1.8,0.3,3.7,2.1,4.3c1.8,0.6,3.7-0.3,4.3-2.1c0.6-1.8-0.3-3.7-2.1-4.3
	C28,924.6,26.2,925.5,25.4,927.3L25.4,927.3z"/>
<path class="st0" d="M204.1,1006.4c-0.6,1.8,0.3,3.7,2.1,4.3c1.8,0.6,3.7-0.3,4.3-2.1s-0.3-3.7-2.1-4.3
	C206.7,1003.7,204.8,1004.6,204.1,1006.4L204.1,1006.4z"/>
<path class="st0" d="M248.3,775.2c-0.6,1.8,0.3,3.7,2.1,4.3c1.8,0.6,3.7-0.3,4.3-2.1c0.6-1.8-0.3-3.7-2.1-4.3
	C250.9,772.5,249.1,773.4,248.3,775.2L248.3,775.2z"/>
<path class="st0" d="M320.3,1047.8c-0.6,1.8,0.3,3.7,2.1,4.3c1.8,0.6,3.7-0.3,4.3-2.1s-0.3-3.7-2.1-4.3
	C322.9,1045.1,321,1046,320.3,1047.8L320.3,1047.8z"/>
<path class="st0" d="M765.6,761.8c0.6,1.8-0.3,3.7-2.1,4.3c-1.8,0.6-3.7-0.3-4.3-2.1c-0.6-1.8,0.3-3.7,2.1-4.3
	C763,759.1,764.8,760,765.6,761.8L765.6,761.8z"/>
<path class="st0" d="M794.8,927.3c0.6,1.8-0.3,3.7-2.1,4.3c-1.8,0.6-3.7-0.3-4.3-2.1c-0.6-1.8,0.3-3.7,2.1-4.3
	C792.2,924.6,794,925.5,794.8,927.3L794.8,927.3z"/>
<path class="st0" d="M616.1,1006.4c0.6,1.8-0.3,3.7-2.1,4.3c-1.8,0.6-3.7-0.3-4.3-2.1c-0.6-1.8,0.3-3.7,2.1-4.3
	C613.5,1003.7,615.3,1004.6,616.1,1006.4L616.1,1006.4z"/>
<path class="st0" d="M571.9,775.2c0.6,1.8-0.3,3.7-2.1,4.3c-1.8,0.6-3.7-0.3-4.3-2.1c-0.6-1.8,0.3-3.7,2.1-4.3
	C569.2,772.5,571.1,773.4,571.9,775.2L571.9,775.2z"/>
<path class="st0" d="M499.9,1047.8c0.6,1.8-0.3,3.7-2.1,4.3c-1.8,0.6-3.7-0.3-4.3-2.1s0.3-3.7,2.1-4.3
	C497.3,1045.1,499.2,1046,499.9,1047.8L499.9,1047.8z"/>
<polygon class="st0" points="340.1,446.6 341.9,436.4 288.7,427 290.3,418 237,408.6 235.4,417.6 182.3,408.2 180.5,418.7 
	60.2,397.5 49.4,458.4 70.4,462.1 77.4,422.4 169.7,438.6 185.7,430.5 224.8,437.4 240.3,431.9 279.3,438.8 292,449.2 331.1,456.1 
	343.3,469.3 382.4,476.2 407.3,476.2 407.3,458.5 "/>
<circle class="st0" cx="69.2" cy="410.9" r="4.7"/>
<circle class="st0" cx="262.9" cy="424.3" r="4.7"/>
<polygon class="st0" points="304,534.1 305.8,523.8 252.6,514.4 254.2,505.5 200.9,496.1 199.4,505.1 146.3,495.7 144.4,506.2 
	24.1,485 13.3,545.8 34.4,549.5 41.4,509.8 133.6,526.1 149.6,517.9 188.7,524.8 204.2,519.3 243.3,526.2 256,536.7 295,543.6 
	307.3,556.7 346.4,563.6 371.2,563.6 371.2,545.9 "/>
<circle class="st0" cx="33.1" cy="498.3" r="4.7"/>
<circle class="st0" cx="226.8" cy="511.8" r="4.7"/>
<polygon class="st0" points="80,623.3 78.2,633.6 131.3,642.9 129.8,651.9 183,661.3 184.6,652.3 237.7,661.7 239.5,651.2 
	359.9,672.4 370.6,611.6 349.6,607.9 342.6,647.6 250.3,631.3 234.3,639.4 195.3,632.6 179.8,638 140.7,631.2 128,620.7 88.9,613.8 
	76.7,600.7 37.6,593.8 12.7,593.8 12.7,611.5 "/>
<circle class="st0" cx="350.8" cy="659.1" r="4.7"/>
<circle class="st0" cx="157.1" cy="645.6" r="4.7"/>
<polygon class="st0" points="621,420.9 607.7,435.4 608,475.1 600,489.4 600.4,529.1 560.7,529.5 535.8,556.7 544.1,570.9 
	544.4,610.6 555.4,624.8 556.2,718.5 510.7,718.9 510.9,740.4 577.9,739.8 576.8,617.5 565.8,617.6 565.3,563.7 557.2,563.7 
	557.1,550.2 622.9,549.6 622.2,482.1 629.4,482 628.9,428 642.8,427.9 642.2,359.7 638.9,341.6 614.2,346.2 620.7,381.3 "/>
<circle class="st0" cx="566.8" cy="728.6" r="4.7"/>
<circle class="st0" cx="611.9" cy="538.5" r="4.7"/>
<circle class="st0" cx="631.4" cy="416.7" r="4.7"/>
<polygon class="st0" points="668,598.3 680.4,583 677.3,543.4 684.3,528.5 681.3,488.9 720.8,485.9 743.8,457 734.6,443.4 
	731.6,403.8 719.7,390.4 712.5,297 757.9,293.5 756.3,272.1 689.5,277.2 698.9,399.2 709.8,398.3 713.9,452.1 722,451.5 723,465 
	657.5,470 662.6,537.3 655.5,537.9 659.7,591.7 645.8,592.8 651,660.8 655.6,678.6 679.9,672.4 671.1,637.8 "/>
<circle class="st0" cx="701.3" cy="287.7" r="4.7"/>
<circle class="st0" cx="669.1" cy="480.4" r="4.7"/>
<circle class="st0" cx="658" cy="603.2" r="4.7"/>
<polygon class="st0" points="806.8,377.6 794.3,392.8 797,432.4 789.9,447.2 792.5,486.8 752.9,489.5 729.7,518.1 738.7,531.8 
	741.4,571.4 753.1,585 759.4,678.5 714,681.5 715.4,702.9 782.2,698.5 774,576.4 763.1,577.1 759.5,523.3 751.4,523.9 750.5,510.3 
	816.1,505.9 811.6,438.6 818.7,438.1 815.1,384.2 829,383.3 824.4,315.3 820,297.4 795.6,303.4 804.2,338 "/>
<circle class="st0" cx="770.5" cy="687.9" r="4.7"/>
<circle class="st0" cx="804.6" cy="495.5" r="4.7"/>
<circle class="st0" cx="816.9" cy="372.7" r="4.7"/>
</svg>
