<?xml version="1.0" encoding="utf-8"?>
<!-- Generator: Adobe Illustrator 24.2.1, SVG Export Plug-In . SVG Version: 6.00 Build 0)  -->
<svg version="1.1" id="레이어_1" xmlns="http://www.w3.org/2000/svg" xmlns:xlink="http://www.w3.org/1999/xlink" x="0px"
	 y="0px" viewBox="0 0 850.4 850.4" style="enable-background:new 0 0 850.4 850.4;" xml:space="preserve">
<style type="text/css">
	.st0{fill:none;stroke:#000000;stroke-width:0.25;stroke-miterlimit:10;}
</style>
<path class="st0" d="M591.8,192.3l-1.1,0.6c-4.6,2.7-7.4,7.7-7.4,13v30.2c0,4.5-3.6,8.1-8.1,8.1H237.5c-4.5,0-8.1-3.6-8.1-8.1V206
	c0-5.3-2.8-10.2-7.4-13l-1.1-0.6c-2.3-1.4-5-2.1-7.7-2.1l-176.7,0.1c-4.5,0-8.1-3.6-8.1-8.1V36.4c0-4.5,3.6-8.1,8.1-8.1h739.8
	c4.5,0,8.1,3.6,8.1,8.1v145.8c0,4.5-3.6,8.1-8.1,8.1l-176.7-0.1C596.8,190.2,594.1,191,591.8,192.3z"/>
<polygon class="st0" points="737.5,143.5 737.5,183.2 777.2,183.2 777.2,143.5 "/>
<polygon class="st0" points="683.5,143.5 683.5,183.2 723.2,183.2 723.2,143.5 "/>
<polygon class="st0" points="629.5,143.5 629.5,183.2 669.2,183.2 669.2,143.5 "/>
<polygon class="st0" points="575.5,143.5 575.5,183.2 615.2,183.2 615.2,143.5 "/>
<polygon class="st0" points="521.5,143.5 521.5,183.2 561.2,183.2 561.2,143.5 "/>
<polygon class="st0" points="467.5,143.5 467.5,183.2 507.2,183.2 507.2,143.5 "/>
<polygon class="st0" points="305.5,143.5 305.5,183.2 345.2,183.2 345.2,143.5 "/>
<polygon class="st0" points="251.5,143.5 251.5,183.2 291.2,183.2 291.2,143.5 "/>
<polygon class="st0" points="197.5,143.5 197.5,183.2 237.2,183.2 237.2,143.5 "/>
<polygon class="st0" points="143.5,143.5 143.5,183.2 183.2,183.2 183.2,143.5 "/>
<polygon class="st0" points="89.5,143.5 89.5,183.2 129.2,183.2 129.2,143.5 "/>
<polygon class="st0" points="35.5,143.5 35.5,183.2 75.2,183.2 75.2,143.5 "/>
<polygon class="st0" points="737.5,89.5 737.5,129.2 777.2,129.2 777.2,89.5 "/>
<polygon class="st0" points="683.5,89.5 683.5,129.2 723.2,129.2 723.2,89.5 "/>
<polygon class="st0" points="629.5,89.5 629.5,129.2 669.2,129.2 669.2,89.5 "/>
<polygon class="st0" points="575.5,89.5 575.5,129.2 615.2,129.2 615.2,89.5 "/>
<polygon class="st0" points="521.5,89.5 521.5,129.2 561.2,129.2 561.2,89.5 "/>
<polygon class="st0" points="467.5,89.5 467.5,129.2 507.2,129.2 507.2,89.5 "/>
<polygon class="st0" points="305.5,89.5 305.5,129.2 345.2,129.2 345.2,89.5 "/>
<polygon class="st0" points="251.5,89.5 251.5,129.2 291.2,129.2 291.2,89.5 "/>
<polygon class="st0" points="197.5,89.5 197.5,129.2 237.2,129.2 237.2,89.5 "/>
<polygon class="st0" points="143.5,89.5 143.5,129.2 183.2,129.2 183.2,89.5 "/>
<polygon class="st0" points="89.5,89.5 89.5,129.2 129.2,129.2 129.2,89.5 "/>
<polygon class="st0" points="35.5,89.5 35.5,129.2 75.2,129.2 75.2,89.5 "/>
<polygon class="st0" points="737.5,35.5 737.5,75.2 777.2,75.2 777.2,35.5 "/>
<polygon class="st0" points="683.5,35.5 683.5,75.2 723.2,75.2 723.2,35.5 "/>
<polygon class="st0" points="629.5,35.5 629.5,75.2 669.2,75.2 669.2,35.5 "/>
<polygon class="st0" points="575.5,35.5 575.5,75.2 615.2,75.2 615.2,35.5 "/>
<polygon class="st0" points="521.5,35.5 521.5,75.2 561.2,75.2 561.2,35.5 "/>
<polygon class="st0" points="467.5,35.5 467.5,75.2 507.2,75.2 507.2,35.5 "/>
<polygon class="st0" points="305.5,35.5 305.5,75.2 345.2,75.2 345.2,35.5 "/>
<polygon class="st0" points="251.5,35.5 251.5,75.2 291.2,75.2 291.2,35.5 "/>
<polygon class="st0" points="197.5,35.5 197.5,75.2 237.2,75.2 237.2,35.5 "/>
<polygon class="st0" points="143.5,35.5 143.5,75.2 183.2,75.2 183.2,35.5 "/>
<polygon class="st0" points="89.5,35.5 89.5,75.2 129.2,75.2 129.2,35.5 "/>
<polygon class="st0" points="35.5,35.5 35.5,75.2 75.2,75.2 75.2,35.5 "/>
<polygon class="st0" points="536.5,197.4 536.5,237.1 576.2,237.1 576.2,197.4 "/>
<polygon class="st0" points="482.5,197.4 482.5,237.1 522.2,237.1 522.2,197.4 "/>
<polygon class="st0" points="344.5,197.4 344.5,237.1 384.2,237.1 384.2,197.4 "/>
<polygon class="st0" points="290.5,197.4 290.5,237.1 330.2,237.1 330.2,197.4 "/>
<polygon class="st0" points="236.5,197.4 236.5,237.1 276.2,237.1 276.2,197.4 "/>
<polygon class="st0" points="428.5,197.4 428.5,237.1 468.2,237.1 468.2,197.4 "/>
<path class="st0" d="M78.9,82.6c0,1.9,1.5,3.4,3.4,3.4s3.4-1.5,3.4-3.4c0-1.9-1.5-3.4-3.4-3.4C80.4,79.2,78.9,80.7,78.9,82.6
	L78.9,82.6z"/>
<path class="st0" d="M384.2,237.1"/>
<path class="st0" d="M276.2,197.4"/>
<path class="st0" d="M78.5,136c0,1.9,1.5,3.4,3.4,3.4c1.9,0,3.4-1.5,3.4-3.4s-1.5-3.4-3.4-3.4C80.1,132.6,78.5,134.2,78.5,136
	L78.5,136z"/>
<path class="st0" d="M295.1,82.8c0,1.9,1.5,3.4,3.4,3.4c1.9,0,3.4-1.5,3.4-3.4s-1.5-3.4-3.4-3.4S295.1,80.9,295.1,82.8L295.1,82.8z"
	/>
<path class="st0" d="M402.8,217c0,1.9,1.5,3.4,3.4,3.4c1.9,0,3.4-1.5,3.4-3.4s-1.5-3.4-3.4-3.4C404.3,213.6,402.8,215.1,402.8,217
	L402.8,217z"/>
<path class="st0" d="M510.6,81.9c0,1.9,1.5,3.4,3.4,3.4s3.4-1.5,3.4-3.4c0-1.9-1.5-3.4-3.4-3.4C512.1,78.5,510.6,80,510.6,81.9
	L510.6,81.9z"/>
<path class="st0" d="M727.1,81.9c0,1.9,1.5,3.4,3.4,3.4c1.9,0,3.4-1.5,3.4-3.4c0-1.9-1.5-3.4-3.4-3.4
	C728.6,78.5,727.1,80,727.1,81.9L727.1,81.9z"/>
<path class="st0" d="M727,136.3c0,1.9,1.5,3.4,3.4,3.4c1.9,0,3.4-1.5,3.4-3.4c0-1.9-1.5-3.4-3.4-3.4
	C728.5,132.9,727,134.4,727,136.3L727,136.3z"/>
<path class="st0" d="M591.8,447.5l-1.1,0.6c-4.6,2.7-7.4,7.7-7.4,13v30.2c0,4.5-3.6,8.1-8.1,8.1H237.5c-4.5,0-8.1-3.6-8.1-8.1v-30.2
	c0-5.3-2.8-10.2-7.4-13l-1.1-0.6c-2.3-1.4-5-2.1-7.7-2.1l-176.7,0.1c-4.5,0-8.1-3.6-8.1-8.1V291.6c0-4.5,3.6-8.1,8.1-8.1h739.8
	c4.5,0,8.1,3.6,8.1,8.1v145.8c0,4.5-3.6,8.1-8.1,8.1l-176.7-0.1C596.8,445.3,594.1,446.1,591.8,447.5z"/>
<path class="st0" d="M78.9,337.7c0,1.9,1.5,3.4,3.4,3.4s3.4-1.5,3.4-3.4c0-1.9-1.5-3.4-3.4-3.4C80.4,334.3,78.9,335.8,78.9,337.7
	L78.9,337.7z"/>
<path class="st0" d="M384.2,492.2"/>
<path class="st0" d="M78.5,391.2c0,1.9,1.5,3.4,3.4,3.4s3.4-1.5,3.4-3.4c0-1.9-1.5-3.4-3.4-3.4C80.1,387.8,78.5,389.3,78.5,391.2
	L78.5,391.2z"/>
<path class="st0" d="M295.1,337.9c0,1.9,1.5,3.4,3.4,3.4c1.9,0,3.4-1.5,3.4-3.4s-1.5-3.4-3.4-3.4S295.1,336,295.1,337.9L295.1,337.9
	z"/>
<path class="st0" d="M402.8,472.1c0,1.9,1.5,3.4,3.4,3.4c1.9,0,3.4-1.5,3.4-3.4c0-1.9-1.5-3.4-3.4-3.4
	C404.3,468.7,402.8,470.2,402.8,472.1L402.8,472.1z"/>
<path class="st0" d="M510.6,337c0,1.9,1.5,3.4,3.4,3.4s3.4-1.5,3.4-3.4s-1.5-3.4-3.4-3.4C512.1,333.6,510.6,335.1,510.6,337
	L510.6,337z"/>
<path class="st0" d="M727.1,337c0,1.9,1.5,3.4,3.4,3.4c1.9,0,3.4-1.5,3.4-3.4s-1.5-3.4-3.4-3.4C728.6,333.6,727.1,335.1,727.1,337
	L727.1,337z"/>
<path class="st0" d="M727,391.4c0,1.9,1.5,3.4,3.4,3.4c1.9,0,3.4-1.5,3.4-3.4s-1.5-3.4-3.4-3.4C728.5,388,727,389.5,727,391.4
	L727,391.4z"/>
</svg>
