<?xml version="1.0" encoding="utf-8"?>
<!-- Generator: Adobe Illustrator 24.2.1, SVG Export Plug-In . SVG Version: 6.00 Build 0)  -->
<svg version="1.1" xmlns="http://www.w3.org/2000/svg" xmlns:xlink="http://www.w3.org/1999/xlink" x="0px" y="0px"
	 viewBox="0 0 850.4 1150.9" style="enable-background:new 0 0 850.4 1150.9;" xml:space="preserve">
<style type="text/css">
	.st0{fill:#FFFFFF;stroke:#231815;stroke-width:0.25;stroke-miterlimit:10;}
	.st1{fill:none;stroke:#E60012;stroke-width:0.25;stroke-miterlimit:10;}
	.st2{fill:#FFFFFF;stroke:#E60012;stroke-width:0.25;stroke-miterlimit:10;}
</style>
<g id="box">
	<rect class="st0" width="850.4" height="1105.5"/>
</g>
<g id="cut">
	<path class="st1" d="M810,146.5l-26.2-99.5c-3.7-14.2-12.9-26.3-25.5-33.7l0,0c-10-5.9-21.6-8.5-33.2-7.4L604,17.3
		c-15,1.4-29.7,5.4-43.3,11.8L455.3,78.5c-13,6.1-27.1,9.2-41.5,9.2h-4.1c-14.3,0-28.5-3.2-41.5-9.2L262.8,29.1
		c-13.7-6.4-28.3-10.4-43.3-11.8L98.6,5.9C87,4.8,75.4,7.4,65.4,13.3h0c-12.6,7.4-21.8,19.5-25.5,33.7l-26.2,99.5
		c-3.7,14-1.7,28.9,5.4,41.5l2.1,3.6c4.6,8.2,11.3,15,19.3,19.9l156.3,95.3c1.4,0.9,2.9,1.7,4.4,2.4l93,45.7
		c23.9,11.7,50.2,17.9,76.8,17.9h81.7c26.6,0,52.9-6.1,76.8-17.9l93-45.7c1.5-0.7,3-1.6,4.4-2.4l156.3-95.3
		c8-4.9,14.7-11.7,19.3-19.9l2.1-3.6C811.7,175.4,813.7,160.5,810,146.5z M29.4,173.3c-0.4,1.7-2.2,2.7-3.8,2.2
		c-1.7-0.4-2.7-2.2-2.2-3.8c0.4-1.7,2.2-2.7,3.8-2.2S29.9,171.7,29.4,173.3z M237.8,36.5c0.4-1.7,2.2-2.7,3.8-2.2
		c1.7,0.4,2.7,2.2,2.2,3.8s-2.2,2.7-3.8,2.2C238.3,39.8,237.3,38.1,237.8,36.5z M60.8,32.4c0.4-1.7,2.2-2.7,3.8-2.2
		c1.7,0.4,2.7,2.2,2.2,3.8c-0.4,1.7-2.2,2.7-3.8,2.2C61.3,35.8,60.3,34.1,60.8,32.4z M199.3,220.2c-0.4,1.7-2.2,2.7-3.8,2.2
		c-1.7-0.4-2.7-2.2-2.2-3.8c0.4-1.7,2.2-2.7,3.8-2.2C198.7,216.9,199.7,218.6,199.3,220.2z M208,291.8c-0.4,1.7-2.2,2.7-3.8,2.2
		c-1.7-0.4-2.7-2.2-2.2-3.8c0.4-1.7,2.2-2.7,3.8-2.2S208.5,290.1,208,291.8z M759,30.2c1.7-0.4,3.4,0.5,3.8,2.2
		c0.4,1.7-0.5,3.4-2.2,3.8c-1.7,0.4-3.4-0.5-3.8-2.2C756.3,32.3,757.3,30.6,759,30.2z M582,34.3c1.7-0.4,3.4,0.5,3.8,2.2
		c0.4,1.7-0.5,3.4-2.2,3.8c-1.7,0.4-3.4-0.5-3.8-2.2C579.3,36.4,580.3,34.7,582,34.3z M619.3,294c-1.7,0.4-3.4-0.5-3.8-2.2
		c-0.4-1.7,0.5-3.4,2.2-3.8c1.7-0.4,3.4,0.5,3.8,2.2C622,291.8,621,293.5,619.3,294z M628.1,222.5c-1.7,0.4-3.4-0.5-3.8-2.2
		c-0.4-1.7,0.5-3.4,2.2-3.8c1.7-0.4,3.4,0.5,3.8,2.2C630.8,220.3,629.8,222,628.1,222.5z M797.9,175.5c-1.7,0.4-3.4-0.5-3.8-2.2
		c-0.4-1.7,0.5-3.4,2.2-3.8c1.7-0.4,3.4,0.5,3.8,2.2C800.6,173.4,799.6,175.1,797.9,175.5z"/>
	<path class="st2" d="M564.8,411l38.7-21.3l2.1-16.5l38.7-21.3l15.1,7.1l38.7-21.3l15.1,7.1l86.1-47.4l10.1,18.4
		c4.8,8.7,16,11.4,24.2,5.9v0c7.2-4.9,9.5-14.4,5.4-22.1l-0.7-1.4c-7-12.9-18.8-22.4-32.9-26.6l0,0c-11.1-3.3-23-3-34,0.8l-114.7,40
		c-14.2,5-27.5,12.3-39.2,21.8l-90.6,73.2c-4.7,3.8-9.7,7.1-14.9,9.9c-6.6,3.6-10.1,11.1-8.3,18.4l0.3,1.1
		c2.2,8.9,11.2,14.4,20.1,12.2l0,0l38.7-21.3L564.8,411z M809.3,286.2c2.4-1.3,5.4-0.4,6.7,2c1.3,2.4,0.4,5.4-2,6.7s-5.4,0.4-6.7-2
		C806.1,290.5,806.9,287.5,809.3,286.2z M638.4,332.5c2.4-1.3,5.4-0.4,6.7,2c1.3,2.4,0.4,5.4-2,6.7c-2.4,1.3-5.4,0.4-6.7-2
		C635.2,336.8,636,333.8,638.4,332.5z"/>
	<path class="st2" d="M113.3,602.9L113.3,602.9c1.6-9.2-4.7-17.9-13.9-19.3l-22.7-3.4L91.2,483l14.8-7.7l6.6-43.7l14.8-7.7l0.9-5.9
		c2.7-18.2-13.7-33.6-31.7-29.6l-9.4,2.1l-35.9-5.4l6.6-43.7l2-14.8l-5-43.9l2.9-22.9l-6.3-16c-3.9-9.9-11.6-17.9-21.3-22.1h0
		c-4.7-2-10.1,0.6-11.3,5.6c-3.8,15.8-5.4,32.2-4.6,48.6L19,379.5c0.1,1.7,0.2,3.4,0.5,5l24.9,181.3c1.3,9.3,4.9,18.1,10.5,25.7
		l2.5,3.3c8.7,11.6,21.6,19.3,35.9,21.5l1,0.2C103.3,617.9,111.8,611.8,113.3,602.9z M32.4,382.4c0.4-2.7,2.9-4.6,5.6-4.2
		c2.7,0.4,4.6,2.9,4.2,5.6c-0.4,2.7-2.9,4.6-5.6,4.2C33.9,387.6,32,385.1,32.4,382.4z M94.5,419c0.4-2.7,2.9-4.6,5.6-4.2
		c2.7,0.4,4.6,2.9,4.2,5.6c-0.4,2.7-2.9,4.6-5.6,4.2C95.9,424.3,94.1,421.7,94.5,419z M69.6,593.4c0.4-2.7,2.9-4.6,5.6-4.2
		c2.7,0.4,4.6,2.9,4.2,5.6c-0.4,2.7-2.9,4.6-5.6,4.2C71.1,598.7,69.2,596.2,69.6,593.4z"/>
	<path class="st2" d="M564.8,489.3l38.7-21.3l2.1-16.5l38.7-21.3l15.1,7.1l38.7-21.3l15.1,7.1l86.1-47.4l10.1,18.4
		c4.8,8.7,16,11.4,24.2,5.9v0c7.2-4.9,9.5-14.4,5.4-22.1l-0.7-1.4c-7-12.9-18.8-22.4-32.9-26.6l0,0c-11.1-3.3-23-3-34,0.8l-114.7,40
		c-14.2,5-27.5,12.3-39.2,21.8l-90.6,73.2c-4.7,3.8-9.7,7.1-14.9,9.9c-6.6,3.6-10.1,11.1-8.3,18.4l0.3,1.1
		c2.2,8.9,11.2,14.4,20.1,12.2l0,0l38.7-21.3L564.8,489.3z M809.3,364.4c2.4-1.3,5.4-0.4,6.7,2c1.3,2.4,0.4,5.4-2,6.7
		s-5.4,0.4-6.7-2C806.1,368.8,806.9,365.7,809.3,364.4z M638.4,410.7c2.4-1.3,5.4-0.4,6.7,2c1.3,2.4,0.4,5.4-2,6.7
		c-2.4,1.3-5.4,0.4-6.7-2C635.2,415.1,636,412,638.4,410.7z"/>
	<path class="st2" d="M564.8,569l38.7-21.3l2.1-16.5l38.7-21.3l15.1,7.1l38.7-21.3l15.1,7.1l86.1-47.4l10.1,18.4
		c4.8,8.7,16,11.4,24.2,5.9v0c7.2-4.9,9.5-14.4,5.4-22.1l-0.7-1.4c-7-12.9-18.8-22.4-32.9-26.6l0,0c-11.1-3.3-23-3-34,0.8l-114.7,40
		c-14.2,5-27.5,12.3-39.2,21.8l-90.6,73.2c-4.7,3.8-9.7,7.1-14.9,9.9c-6.6,3.6-10.1,11.1-8.3,18.4l0.3,1.1
		c2.2,8.9,11.2,14.4,20.1,12.2l0,0l38.7-21.3L564.8,569z M809.3,444.2c2.4-1.3,5.4-0.4,6.7,2c1.3,2.4,0.4,5.4-2,6.7
		c-2.4,1.3-5.4,0.4-6.7-2C806.1,448.5,806.9,445.5,809.3,444.2z M638.4,490.5c2.4-1.3,5.4-0.4,6.7,2c1.3,2.4,0.4,5.4-2,6.7
		c-2.4,1.3-5.4,0.4-6.7-2C635.2,494.8,636,491.8,638.4,490.5z"/>
	<path class="st2" d="M568.8,661.1l38.7-21.3l2.1-16.5l38.7-21.3l15.1,7.1l38.7-21.3l15.1,7.1l86.1-47.4l10.1,18.4
		c4.8,8.7,16,11.4,24.2,5.9l0,0c7.2-4.9,9.5-14.4,5.4-22.1l-0.7-1.4c-7-12.9-18.8-22.4-32.9-26.6h0c-11.1-3.3-23-3-34,0.8l-114.7,40
		c-14.2,5-27.5,12.3-39.2,21.8l-90.6,73.2c-4.7,3.8-9.7,7.1-14.9,9.9c-6.6,3.6-10.1,11.1-8.3,18.4l0.3,1.1
		c2.2,8.9,11.2,14.4,20.1,12.2l0,0l38.7-21.3L568.8,661.1z M813.3,536.2c2.4-1.3,5.4-0.4,6.7,2c1.3,2.4,0.4,5.4-2,6.7
		c-2.4,1.3-5.4,0.4-6.7-2C810.1,540.6,810.9,537.6,813.3,536.2z M642.4,582.5c2.4-1.3,5.4-0.4,6.7,2c1.3,2.4,0.4,5.4-2,6.7
		c-2.4,1.3-5.4,0.4-6.7-2C639.2,586.9,640,583.9,642.4,582.5z"/>
	<path class="st2" d="M117.2,308.9L117.2,308.9c-0.7,9.3,6.3,17.4,15.7,17.9l22.9,1.3l-5.6,98.1l-14,9l-2.5,44.1l-14,9l-0.3,5.9
		c-1.1,18.4,16.7,32.2,34.3,26.5l9.2-2.9l36.2,2.1l-2.5,44.1l-0.7,14.9l9,43.3l-0.8,23.1l7.7,15.3c4.8,9.5,13.2,16.7,23.3,20.1h0
		c4.9,1.6,10-1.6,10.7-6.6c2.3-16.1,2.4-32.5,0.1-48.8l-14.2-102.7c-0.2-1.7-0.5-3.3-0.9-5l-41.5-178.3c-2.1-9.2-6.6-17.6-12.9-24.6
		l-2.8-3.1c-9.7-10.7-23.2-17.3-37.7-18.1l-1.1-0.1C125.8,293,117.9,299.8,117.2,308.9z M218.1,521c-0.2,2.7-2.5,4.8-5.2,4.7
		c-2.7-0.2-4.8-2.5-4.7-5.2c0.2-2.7,2.5-4.8,5.2-4.7C216.1,515.9,218.2,518.2,218.1,521z M152.9,490.2c-0.2,2.7-2.5,4.8-5.2,4.7
		c-2.7-0.2-4.8-2.5-4.7-5.2c0.2-2.7,2.5-4.8,5.2-4.7C151,485.1,153,487.5,152.9,490.2z M161.6,314.2c-0.2,2.7-2.5,4.8-5.2,4.7
		c-2.7-0.2-4.8-2.5-4.7-5.2c0.2-2.7,2.5-4.8,5.2-4.7C159.6,309.2,161.7,311.5,161.6,314.2z"/>
	<path class="st2" d="M351.5,737.2L351.5,737.2c1.6-9.2-4.7-17.9-13.9-19.3l-22.7-3.4l14.6-97.1l14.8-7.7l6.6-43.7l14.8-7.7l0.9-5.9
		c2.7-18.2-13.7-33.6-31.7-29.6l-9.4,2.1l-35.9-5.4l6.6-43.7l2-14.8l-5-43.9l2.9-22.9l-6.3-16c-3.9-9.9-11.6-17.9-21.3-22.1l0,0
		c-4.7-2-10.1,0.6-11.3,5.6c-3.8,15.8-5.4,32.2-4.6,48.6l4.7,103.6c0.1,1.7,0.2,3.4,0.5,5l24.9,181.3c1.3,9.3,4.9,18.1,10.5,25.7
		l2.5,3.3c8.7,11.6,21.6,19.3,35.9,21.5l1,0.2C341.5,752.3,350,746.2,351.5,737.2z M270.7,516.7c0.4-2.7,2.9-4.6,5.6-4.2
		c2.7,0.4,4.6,2.9,4.2,5.6c-0.4,2.7-2.9,4.6-5.6,4.2C272.1,522,270.2,519.4,270.7,516.7z M332.7,553.4c0.4-2.7,2.9-4.6,5.6-4.2
		c2.7,0.4,4.6,2.9,4.2,5.6c-0.4,2.7-2.9,4.6-5.6,4.2C334.2,558.6,332.3,556.1,332.7,553.4z M307.8,727.8c0.4-2.7,2.9-4.6,5.6-4.2
		c2.7,0.4,4.6,2.9,4.2,5.6c-0.4,2.7-2.9,4.6-5.6,4.2C309.3,733,307.4,730.5,307.8,727.8z"/>
	<path class="st2" d="M367.4,398.7L367.4,398.7c-0.7,9.3,6.3,17.4,15.7,17.9l22.9,1.3l-5.6,98.1l-14,9l-2.5,44.1l-14,9l-0.3,5.9
		c-1.1,18.4,16.7,32.2,34.3,26.5l9.2-2.9l36.2,2.1l-2.5,44.1l-0.7,14.9l9,43.3l-0.8,23.1l7.7,15.3c4.8,9.5,13.2,16.7,23.3,20.1l0,0
		c4.9,1.6,10-1.6,10.7-6.6c2.3-16.1,2.4-32.5,0.1-48.8l-14.2-102.7c-0.2-1.7-0.5-3.3-0.9-5l-41.5-178.3c-2.1-9.2-6.6-17.6-12.9-24.6
		l-2.8-3.1c-9.7-10.7-23.2-17.3-37.7-18.1l-1.1-0.1C376,382.7,368.1,389.6,367.4,398.7z M468.3,610.7c-0.2,2.7-2.5,4.8-5.2,4.7
		c-2.7-0.2-4.8-2.5-4.7-5.2c0.2-2.7,2.5-4.8,5.2-4.7C466.4,605.7,468.5,608,468.3,610.7z M403.1,580c-0.2,2.7-2.5,4.8-5.2,4.7
		c-2.7-0.2-4.8-2.5-4.7-5.2c0.2-2.7,2.5-4.8,5.2-4.7C401.2,574.9,403.3,577.2,403.1,580z M411.8,404c-0.2,2.7-2.5,4.8-5.2,4.7
		c-2.7-0.2-4.8-2.5-4.7-5.2c0.2-2.7,2.5-4.8,5.2-4.7C409.9,398.9,412,401.3,411.8,404z"/>
	<path class="st1" d="M806.7,872.1l-26.2-99.5c-3.7-14.2-12.9-26.3-25.5-33.7l0,0c-10-5.9-21.6-8.5-33.2-7.4l-121,11.4
		c-15,1.4-29.7,5.4-43.3,11.8L452,804.1c-13,6.1-27.1,9.2-41.5,9.2h-4.1c-14.3,0-28.5-3.2-41.5-9.2l-105.4-49.4
		c-13.7-6.4-28.3-10.4-43.3-11.8l-121-11.4c-11.6-1.1-23.2,1.5-33.2,7.4h0c-12.6,7.4-21.8,19.5-25.5,33.7l-26.2,99.5
		c-3.7,14-1.7,28.9,5.4,41.5l2.1,3.6c4.6,8.2,11.3,15,19.3,19.9l156.3,95.3c1.4,0.9,2.9,1.7,4.4,2.4l93,45.7
		c23.9,11.7,50.2,17.9,76.8,17.9h81.7c26.6,0,52.9-6.1,76.8-17.9l93-45.7c1.5-0.7,3-1.6,4.4-2.4l156.3-95.3
		c8-4.9,14.7-11.7,19.3-19.9l2.1-3.6C808.4,901,810.4,886.1,806.7,872.1z M26.2,899c-0.4,1.7-2.2,2.7-3.8,2.2
		c-1.7-0.4-2.7-2.2-2.2-3.8c0.4-1.7,2.2-2.7,3.8-2.2S26.6,897.3,26.2,899z M234.5,762.1c0.4-1.7,2.2-2.7,3.8-2.2
		c1.7,0.4,2.7,2.2,2.2,3.8s-2.2,2.7-3.8,2.2C235,765.5,234,763.8,234.5,762.1z M57.5,758.1c0.4-1.7,2.2-2.7,3.8-2.2
		c1.7,0.4,2.7,2.2,2.2,3.8c-0.4,1.7-2.2,2.7-3.8,2.2C58,761.4,57,759.7,57.5,758.1z M196,945.9c-0.4,1.7-2.2,2.7-3.8,2.2
		c-1.7-0.4-2.7-2.2-2.2-3.8c0.4-1.7,2.2-2.7,3.8-2.2C195.5,942.5,196.4,944.3,196,945.9z M204.8,1017.5c-0.4,1.7-2.2,2.7-3.8,2.2
		c-1.7-0.4-2.7-2.2-2.2-3.8c0.4-1.7,2.2-2.7,3.8-2.2S205.2,1015.8,204.8,1017.5z M755.7,755.9c1.7-0.4,3.4,0.5,3.8,2.2
		c0.4,1.7-0.5,3.4-2.2,3.8c-1.7,0.4-3.4-0.5-3.8-2.2C753.1,758,754.1,756.3,755.7,755.9z M578.7,759.9c1.7-0.4,3.4,0.5,3.8,2.2
		c0.4,1.7-0.5,3.4-2.2,3.8c-1.7,0.4-3.4-0.5-3.8-2.2C576.1,762.1,577.1,760.4,578.7,759.9z M616.1,1019.7c-1.7,0.4-3.4-0.5-3.8-2.2
		c-0.4-1.7,0.5-3.4,2.2-3.8c1.7-0.4,3.4,0.5,3.8,2.2C618.7,1017.5,617.7,1019.2,616.1,1019.7z M624.9,948.1
		c-1.7,0.4-3.4-0.5-3.8-2.2c-0.4-1.7,0.5-3.4,2.2-3.8c1.7-0.4,3.4,0.5,3.8,2.2C627.5,946,626.5,947.7,624.9,948.1z M794.7,901.2
		c-1.7,0.4-3.4-0.5-3.8-2.2c-0.4-1.7,0.5-3.4,2.2-3.8c1.7-0.4,3.4,0.5,3.8,2.2C797.3,899,796.3,900.8,794.7,901.2z"/>
	<g>
		<g>
			<polygon class="st1" points="316.7,324.9 348,356.2 373.6,330.5 342.4,299.2 			"/>
			<polygon class="st1" points="265.8,292.3 304.1,314.5 322.3,283 284,260.9 			"/>
			<polygon class="st1" points="218.1,241.8 208.7,276.9 251.5,288.3 260.8,253.3 			"/>
			<polygon class="st1" points="310.3,210.6 301,245.7 343.7,257.1 353.1,222.1 			"/>
			<polygon class="st1" points="101.7,154.7 92.3,189.8 135,201.2 144.4,166.2 			"/>
			<polygon class="st1" points="49.5,140.7 40.2,175.8 82.9,187.2 92.3,152.2 			"/>
			<polygon class="st1" points="261.7,183.6 252.3,218.6 295,230.1 304.4,195 			"/>
			<polygon class="st1" points="157.4,155.6 148,190.7 190.7,202.1 200.1,167.1 			"/>
			<polygon class="st1" points="213,156.6 203.6,191.6 246.3,203.1 255.7,168 			"/>
			<polygon class="st1" points="324.3,158.5 314.9,193.5 357.6,204.9 367,169.9 			"/>
			<polygon class="st1" points="115.7,102.5 106.3,137.6 149,149 158.4,114 			"/>
			<polygon class="st1" points="63.5,88.6 54.1,123.6 96.8,135.1 106.2,100 			"/>
			<polygon class="st1" points="275.7,131.4 266.3,166.5 309,177.9 318.4,142.9 			"/>
			<polygon class="st1" points="171.3,103.5 161.9,138.5 204.7,150 214.1,114.9 			"/>
			<polygon class="st1" points="227,104.4 217.6,139.5 260.3,150.9 269.7,115.9 			"/>
			<polygon class="st1" points="338.3,106.3 328.9,141.3 371.6,152.8 381,117.7 			"/>
			<polygon class="st1" points="129.7,50.4 120.3,85.4 163,96.9 172.4,61.8 			"/>
			<polygon class="st1" points="77.5,36.4 68.1,71.5 110.8,82.9 120.2,47.9 			"/>
			<polygon class="st1" points="289.6,79.3 280.2,114.3 323,125.8 332.3,90.7 			"/>
			<polygon class="st1" points="185.3,51.3 175.9,86.4 218.6,97.8 228,62.8 			"/>
			<polygon class="st1" points="241,52.3 231.6,87.3 274.3,98.8 283.7,63.7 			"/>
		</g>
		<g>
			<polygon class="st1" points="481.2,299.2 449.9,330.5 475.6,356.2 506.9,324.9 			"/>
			<polygon class="st1" points="539.6,260.9 501.3,283 519.4,314.5 557.7,292.3 			"/>
			<polygon class="st1" points="562.7,253.3 572.1,288.3 614.8,276.9 605.4,241.8 			"/>
			<polygon class="st1" points="470.5,222.1 479.9,257.1 522.6,245.7 513.2,210.6 			"/>
			<polygon class="st1" points="679.1,166.2 688.5,201.2 731.2,189.8 721.9,154.7 			"/>
			<polygon class="st1" points="731.3,152.2 740.7,187.2 783.4,175.8 774,140.7 			"/>
			<polygon class="st1" points="519.2,195 528.6,230.1 571.3,218.6 561.9,183.6 			"/>
			<polygon class="st1" points="623.5,167.1 632.9,202.1 675.6,190.7 666.2,155.6 			"/>
			<polygon class="st1" points="567.8,168 577.2,203.1 619.9,191.6 610.6,156.6 			"/>
			<polygon class="st1" points="456.5,169.9 465.9,204.9 508.6,193.5 499.2,158.5 			"/>
			<polygon class="st1" points="665.2,114 674.6,149 717.3,137.6 707.9,102.5 			"/>
			<polygon class="st1" points="717.3,100 726.7,135.1 769.4,123.6 760,88.6 			"/>
			<polygon class="st1" points="505.2,142.9 514.6,177.9 557.3,166.5 547.9,131.4 			"/>
			<polygon class="st1" points="609.5,114.9 618.9,150 661.6,138.5 652.2,103.5 			"/>
			<polygon class="st1" points="553.9,115.9 563.3,150.9 606,139.5 596.6,104.4 			"/>
			<polygon class="st1" points="442.6,117.7 451.9,152.8 494.7,141.3 485.3,106.3 			"/>
			<polygon class="st1" points="651.2,61.8 660.6,96.9 703.3,85.4 693.9,50.4 			"/>
			<polygon class="st1" points="703.4,47.9 712.7,82.9 755.5,71.5 746.1,36.4 			"/>
			<polygon class="st1" points="491.2,90.7 500.6,125.8 543.3,114.3 533.9,79.3 			"/>
			<polygon class="st1" points="595.5,62.8 604.9,97.8 647.6,86.4 638.3,51.3 			"/>
			<polygon class="st1" points="539.9,63.7 549.3,98.8 592,87.3 582.6,52.3 			"/>
		</g>
	</g>
</g>
<g id="line">
</g>
</svg>
