<?xml version="1.0"?>
<!-- Generated by SVGo -->
<svg width="142.543mm" height="110.482mm"
     viewBox="0.000 0.000 142.543 110.482"
     xmlns="http://www.w3.org/2000/svg" 
     xmlns:xlink="http://www.w3.org/1999/xlink">
<polygon points="137.543,105.481 5.001,105.481 5.001,5.001 137.543,5.001" style="fill:none;stroke-width:0.050000mm;stroke:black"/>
<polygon points="114.575,94.111 128.085,101.911 134.485,90.826 120.975,83.026" style="fill:none;stroke-width:0.050000mm;stroke:black"/>
<polygon points="94.265,87.667 109.334,91.704 112.646,79.340 97.578,75.303" style="fill:none;stroke-width:0.050000mm;stroke:black"/>
<polygon points="73.401,74.801 73.401,87.601 89.001,87.601 89.001,74.801" style="fill:none;stroke-width:0.050000mm;stroke:black"/>
<polygon points="101.976,55.751 101.976,68.551 117.576,68.551 117.576,55.751" style="fill:none;stroke-width:0.050000mm;stroke:black"/>
<polygon points="25.776,55.751 25.776,68.551 41.376,68.551 41.376,55.751" style="fill:none;stroke-width:0.050000mm;stroke:black"/>
<polygon points="6.726,55.751 6.726,68.551 22.326,68.551 22.326,55.751" style="fill:none;stroke-width:0.050000mm;stroke:black"/>
<polygon points="82.926,50.988 82.926,63.788 98.525,63.788 98.525,50.988" style="fill:none;stroke-width:0.050000mm;stroke:black"/>
<polygon points="44.826,50.988 44.826,63.788 60.426,63.788 60.426,50.988" style="fill:none;stroke-width:0.050000mm;stroke:black"/>
<polygon points="63.876,46.226 63.876,59.026 79.476,59.026 79.476,46.226" style="fill:none;stroke-width:0.050000mm;stroke:black"/>
<polygon points="101.976,36.701 101.976,49.501 117.576,49.501 117.576,36.701" style="fill:none;stroke-width:0.050000mm;stroke:black"/>
<polygon points="25.776,36.701 25.776,49.501 41.376,49.501 41.376,36.701" style="fill:none;stroke-width:0.050000mm;stroke:black"/>
<polygon points="6.726,36.701 6.726,49.501 22.326,49.501 22.326,36.701" style="fill:none;stroke-width:0.050000mm;stroke:black"/>
<polygon points="82.926,31.938 82.926,44.738 98.525,44.738 98.525,31.938" style="fill:none;stroke-width:0.050000mm;stroke:black"/>
<polygon points="44.826,31.938 44.826,44.738 60.426,44.738 60.426,31.938" style="fill:none;stroke-width:0.050000mm;stroke:black"/>
<polygon points="63.876,27.176 63.876,39.976 79.476,39.976 79.476,27.176" style="fill:none;stroke-width:0.050000mm;stroke:black"/>
<polygon points="101.976,17.651 101.976,30.451 117.576,30.451 117.576,17.651" style="fill:none;stroke-width:0.050000mm;stroke:black"/>
<polygon points="25.776,17.651 25.776,30.451 41.376,30.451 41.376,17.651" style="fill:none;stroke-width:0.050000mm;stroke:black"/>
<polygon points="6.726,17.651 6.726,30.451 22.326,30.451 22.326,17.651" style="fill:none;stroke-width:0.050000mm;stroke:black"/>
<polygon points="82.926,12.888 82.926,25.688 98.525,25.688 98.525,12.888" style="fill:none;stroke-width:0.050000mm;stroke:black"/>
<polygon points="44.826,12.888 44.826,25.688 60.426,25.688 60.426,12.888" style="fill:none;stroke-width:0.050000mm;stroke:black"/>
<polygon points="63.876,8.126 63.876,20.926 79.476,20.926 79.476,8.126" style="fill:none;stroke-width:0.050000mm;stroke:black"/>
</svg>
