<?xml version="1.0" encoding="utf-8"?>
<!-- Generator: Adobe Illustrator 24.2.1, SVG Export Plug-In . SVG Version: 6.00 Build 0)  -->
<svg version="1.1" id="_x30_" xmlns="http://www.w3.org/2000/svg" xmlns:xlink="http://www.w3.org/1999/xlink" x="0px" y="0px"
	 viewBox="0 0 850.4 850.4" style="enable-background:new 0 0 850.4 850.4;" xml:space="preserve">
<style type="text/css">
	.st0{fill:none;stroke:#000000;stroke-width:0.7087;stroke-linecap:round;stroke-linejoin:round;stroke-miterlimit:10;}
</style>
<g>
	<path class="st0" d="M78.3,576.6c0.6-1.8-0.3-3.7-2-4.4s-3.7,0.3-4.4,2c-0.6,1.8,0.3,3.7,2,4.4S77.7,578.4,78.3,576.6L78.3,576.6z"
		/>
	<path class="st0" d="M161.4,485.2c0.6-1.8-0.3-3.7-2-4.4c-1.8-0.6-3.7,0.3-4.4,2s0.3,3.7,2,4.4C158.8,487.9,160.8,487,161.4,485.2
		L161.4,485.2z"/>
	<path class="st0" d="M248.9,662.5c0.6-1.8-0.3-3.7-2-4.4c-1.8-0.6-3.7,0.3-4.4,2c-0.6,1.8,0.3,3.7,2,4.4
		C246.3,665.2,248.2,664.3,248.9,662.5L248.9,662.5z"/>
	<path class="st0" d="M348.2,753.6c0.6-1.8-0.3-3.7-2-4.4c-1.8-0.6-3.7,0.3-4.4,2c-0.6,1.8,0.3,3.7,2,4.4
		C345.6,756.3,347.6,755.3,348.2,753.6L348.2,753.6z"/>
	<path class="st0" d="M330.3,515.7c0.6-1.8-0.3-3.7-2-4.4c-1.8-0.6-3.7,0.3-4.4,2c-0.6,1.8,0.3,3.7,2,4.4
		C327.7,518.4,329.7,517.5,330.3,515.7L330.3,515.7z"/>
	<path class="st0" d="M129.8,623.3c0.6-1.8-0.3-3.7-2-4.4s-3.7,0.3-4.4,2s0.3,3.7,2,4.4C127.2,626,129.1,625.1,129.8,623.3
		L129.8,623.3z"/>
	<path class="st0" d="M115.2,475.1c0.6-1.8-0.3-3.7-2-4.4c-1.8-0.6-3.7,0.3-4.4,2c-0.6,1.8,0.3,3.7,2,4.4
		C112.7,477.8,114.6,476.9,115.2,475.1L115.2,475.1z"/>
	<path class="st0" d="M769.2,576.6c-0.6-1.8,0.3-3.7,2-4.4c1.8-0.6,3.7,0.3,4.4,2c0.6,1.8-0.3,3.7-2,4.4
		C771.8,579.3,769.9,578.4,769.2,576.6L769.2,576.6z"/>
	<path class="st0" d="M686.1,485.2c-0.6-1.8,0.3-3.7,2-4.4c1.8-0.6,3.7,0.3,4.4,2c0.6,1.8-0.3,3.7-2,4.4
		C688.7,487.9,686.8,487,686.1,485.2L686.1,485.2z"/>
	<path class="st0" d="M598.7,662.5c-0.6-1.8,0.3-3.7,2-4.4c1.8-0.6,3.7,0.3,4.4,2c0.6,1.8-0.3,3.7-2,4.4
		C601.3,665.2,599.3,664.3,598.7,662.5L598.7,662.5z"/>
	<path class="st0" d="M499.3,753.6c-0.6-1.8,0.3-3.7,2-4.4s3.7,0.3,4.4,2c0.6,1.8-0.3,3.7-2,4.4
		C501.9,756.3,499.9,755.3,499.3,753.6L499.3,753.6z"/>
	<path class="st0" d="M517.2,515.7c-0.6-1.8,0.3-3.7,2-4.4c1.8-0.6,3.7,0.3,4.4,2c0.6,1.8-0.3,3.7-2,4.4
		C519.8,518.4,517.8,517.5,517.2,515.7L517.2,515.7z"/>
	<path class="st0" d="M717.8,623.3c-0.6-1.8,0.3-3.7,2-4.4s3.7,0.3,4.4,2c0.6,1.8-0.3,3.7-2,4.4C720.4,626,718.4,625.1,717.8,623.3
		L717.8,623.3z"/>
	<path class="st0" d="M732.3,475.1c-0.6-1.8,0.3-3.7,2-4.4c1.8-0.6,3.7,0.3,4.4,2c0.6,1.8-0.3,3.7-2,4.4
		C734.9,477.8,732.9,476.9,732.3,475.1L732.3,475.1z"/>
	<path class="st0" d="M421.8,787.1l-97.9,45.6c-1.4,0.7-3.1,0-3.8-1.4l-11.4-24.5c-22.7-48.6-63.7-86.2-114.1-104.6l-76.1-27.7
		c-1.5-0.5-2.2-2.2-1.7-3.6l5.4-14.8c0.5-1.5-0.2-3.1-1.7-3.6L4.9,610.4c-1.5-0.5-2.2-2.2-1.7-3.6L59,453.5c0.4-1,1.2-1.7,2.3-1.8
		c131.9-19.2,264.6,21.8,362.5,110.1c97.8-88.3,230.6-129.3,362.5-110.1c1,0.2,1.9,0.9,2.3,1.8l55.8,153.3c0.5,1.5-0.2,3.1-1.7,3.6
		L727,652.5c-1.5,0.5-2.2,2.2-1.7,3.6l5.4,14.8c0.5,1.5-0.2,3.1-1.7,3.6l-76.1,27.7c-50.4,18.3-91.5,56-114.1,104.6l-11.4,24.5
		c-0.7,1.4-2.3,2-3.8,1.4l-97.9-45.6H421.8z"/>
</g>
<g>
	<g id="LWPOLYLINE_1_">
		<path class="st0" d="M764,92.3c1.3-0.5,2.8,0.1,3.5,1.4s2.1,1.9,3.5,1.4l16.1-5.8c1.3-0.5,2.1-1.9,1.8-3.3
			c-0.3-1.4,0.5-2.8,1.8-3.3l2.7-1c1.5-0.5,2.2-2.2,1.7-3.6l-11.6-32c-0.5-1.5-2.2-2.2-3.6-1.7l-2.7,1c-1.3,0.5-2.8-0.1-3.5-1.4
			s-2.1-1.9-3.5-1.4L754,48.4c-1.3,0.5-2.1,1.9-1.8,3.3s-0.5,2.8-1.8,3.3c0,0-2.7,1-2.7,1c-1.5,0.5-2.2,2.2-1.7,3.6l11.6,32
			c0.5,1.5,2.2,2.2,3.6,1.7L764,92.3z"/>
	</g>
	<g id="LWPOLYLINE_2_">
		<path class="st0" d="M801,193.8c1.3-0.5,2.8,0.1,3.5,1.4c0.7,1.3,2.1,1.9,3.5,1.4l16-5.8c1.3-0.5,2.1-1.9,1.8-3.3
			c-0.3-1.4,0.5-2.8,1.8-3.3c0,0,2.7-1,2.7-1c1.5-0.5,2.2-2.2,1.7-3.6l-11.6-32c-0.5-1.5-2.2-2.2-3.6-1.7l-2.7,1
			c-1.3,0.5-2.8-0.1-3.5-1.4c-0.7-1.3-2.1-1.9-3.5-1.4l-16,5.8c-1.3,0.5-2.1,1.9-1.8,3.3c0.3,1.4-0.5,2.8-1.8,3.3l-2.7,1
			c-1.5,0.5-2.2,2.2-1.7,3.6l11.6,32c0.5,1.5,2.2,2.2,3.6,1.7L801,193.8z"/>
	</g>
	<g id="LWPOLYLINE_3_">
		<path class="st0" d="M712.3,251.6c0.3,1.4-0.5,2.8-1.8,3.3l-16.1,5.8c-1.3,0.5-2.8-0.1-3.5-1.4c-0.7-1.3-2.1-1.9-3.5-1.4l-2.7,1
			c-1.5,0.5-3.1-0.2-3.6-1.7l-11.6-32c-0.5-1.5,0.2-3.1,1.7-3.6l2.7-1c1.3-0.5,2.1-1.9,1.8-3.3c-0.3-1.4,0.5-2.8,1.8-3.3l16.1-5.8
			c1.3-0.5,2.8,0.1,3.5,1.4c0.7,1.3,2.1,1.9,3.5,1.4l2.7-1c1.5-0.5,3.1,0.2,3.6,1.7l11.6,32c0.5,1.5-0.2,3.1-1.7,3.6l-2.7,1
			C712.7,248.7,711.9,250.2,712.3,251.6z"/>
	</g>
	<g id="LWPOLYLINE_4_">
		<path class="st0" d="M479.8,335.9c-1.4-0.7-2-2.3-1.4-3.8l2.1-4.5c0.7-1.4,0-3.1-1.4-3.8c0,0-18.4-8.6-18.4-8.6
			c-1.4-0.7-3.1,0-3.8,1.4l-18.9,40.5c-0.7,1.4,0,3.1,1.4,3.8l1.5,0.7c1.3,0.6,1.9,2.1,1.5,3.4c-0.4,1.4,0.2,2.8,1.5,3.4l5.2,2.4
			c1.3,0.6,2.8,0.1,3.6-1.1c0.8-1.2,2.3-1.7,3.6-1.1l46,21.4c1.3,0.6,1.9,2.1,1.5,3.4s0.2,2.8,1.5,3.4c0,0,5.2,2.4,5.2,2.4
			c1.3,0.6,2.8,0.1,3.6-1.1s2.3-1.7,3.6-1.1c0,0,1.5,0.7,1.5,0.7c1.4,0.7,3.1,0,3.8-1.4l18.9-40.5c0.7-1.4,0-3.1-1.4-3.8l-18.4-8.6
			c-1.4-0.7-3.1,0-3.8,1.4c0,0-2.1,4.5-2.1,4.5c-0.7,1.4-2.3,2-3.8,1.4L479.8,335.9z"/>
	</g>
	<g id="LWPOLYLINE_5_">
		<path class="st0" d="M613.4,168.6l11.6,32c0.5,1.5,2.2,2.2,3.6,1.7l32-11.6c1.5-0.5,2.2-2.2,1.7-3.6l-11.6-32
			c-0.5-1.5-2.2-2.2-3.6-1.7l-32,11.6C613.6,165.5,612.8,167.1,613.4,168.6z"/>
	</g>
	<g id="LWPOLYLINE_6_">
		<path class="st0" d="M625.3,85.5l-11.6-32c-0.5-1.5-2.2-2.2-3.6-1.7l-32,11.6c-1.5,0.5-2.2,2.2-1.7,3.6l11.6,32
			c0.5,1.5,2.2,2.2,3.6,1.7l32-11.6C625.1,88.6,625.9,86.9,625.3,85.5z"/>
	</g>
	<g id="LWPOLYLINE_7_">
		<path class="st0" d="M520.6,229.5l11.6,32c0.5,1.5,2.2,2.2,3.6,1.7l32-11.6c1.5-0.5,2.2-2.2,1.7-3.6l-11.6-32
			c-0.5-1.5-2.2-2.2-3.6-1.7l-32,11.6C520.8,226.4,520.1,228,520.6,229.5z"/>
	</g>
	<g id="LWPOLYLINE_8_">
		<path class="st0" d="M618.7,243.7l11.6,32c0.5,1.5,2.2,2.2,3.6,1.7l32-11.6c1.5-0.5,2.2-2.2,1.7-3.6l-11.6-32
			c-0.5-1.5-2.2-2.2-3.6-1.7l-32,11.6C619,240.6,618.2,242.3,618.7,243.7z"/>
	</g>
	<g id="LWPOLYLINE_9_">
		<path class="st0" d="M648.2,98.2l32-11.6c1.5-0.5,2.2-2.2,1.7-3.6l-11.6-32c-0.5-1.5-2.2-2.2-3.6-1.7l-32,11.6
			c-1.5,0.5-2.2,2.2-1.7,3.6l11.6,32C645.1,98,646.8,98.8,648.2,98.2z"/>
	</g>
	<g id="LWPOLYLINE_10_">
		<path class="st0" d="M747.5,113.6l-32,11.6c-1.5,0.5-2.2,2.2-1.7,3.6l11.6,32c0.5,1.5,2.2,2.2,3.6,1.7l32-11.6
			c1.5-0.5,2.2-2.2,1.7-3.6l-11.6-32C750.6,113.8,749,113,747.5,113.6z"/>
	</g>
	<g id="LWPOLYLINE_11_">
		<path class="st0" d="M732.3,179.6l11.6,32c0.5,1.5,2.2,2.2,3.6,1.7l32-11.6c1.5-0.5,2.2-2.2,1.7-3.6l-11.6-32
			c-0.5-1.5-2.2-2.2-3.6-1.7l-32,11.6C732.5,176.5,731.8,178.1,732.3,179.6z"/>
	</g>
	<g id="LWPOLYLINE_12_">
		<path class="st0" d="M729,62.8l-32,11.6c-1.5,0.5-2.2,2.2-1.7,3.6l11.6,32c0.5,1.5,2.2,2.2,3.6,1.7l32-11.6
			c1.5-0.5,2.2-2.2,1.7-3.6l-11.6-32C732.1,63,730.5,62.3,729,62.8z"/>
	</g>
	<g id="LWPOLYLINE_13_">
		<path class="st0" d="M547.2,136.5l32-11.6c1.5-0.5,2.2-2.2,1.7-3.6l-11.6-32c-0.5-1.5-2.2-2.2-3.6-1.7l-32,11.6
			c-1.5,0.5-2.2,2.2-1.7,3.6l11.6,32C544.1,136.3,545.8,137.1,547.2,136.5z"/>
	</g>
	<g id="LWPOLYLINE_14_">
		<path class="st0" d="M565.7,187.3l32-11.6c1.5-0.5,2.2-2.2,1.7-3.6c0,0-11.6-32-11.6-32c-0.5-1.5-2.2-2.2-3.6-1.7l-32,11.6
			c-1.5,0.5-2.2,2.2-1.7,3.6l11.6,32C562.6,187,564.2,187.8,565.7,187.3z"/>
	</g>
	<g id="LWPOLYLINE_15_">
		<path class="st0" d="M643.8,136.2l-11.6-32c-0.5-1.5-2.2-2.2-3.6-1.7l-32,11.6c-1.5,0.5-2.2,2.2-1.7,3.6l11.6,32
			c0.5,1.5,2.2,2.2,3.6,1.7l32-11.6C643.6,139.3,644.4,137.7,643.8,136.2z"/>
	</g>
	<g id="LWPOLYLINE_16_">
		<path class="st0" d="M502.1,178.7l11.6,32c0.5,1.5,2.2,2.2,3.6,1.7l32-11.6c1.5-0.5,2.2-2.2,1.7-3.6l-11.6-32
			c-0.5-1.5-2.2-2.2-3.6-1.7l-32,11.6C502.4,175.6,501.6,177.3,502.1,178.7z"/>
	</g>
	<g id="LWPOLYLINE_17_">
		<path class="st0" d="M615.5,283.5L596,255.6c-0.9-1.3-2.7-1.6-3.9-0.7l-27.9,19.5c-1.3,0.9-1.6,2.7-0.7,3.9l19.5,27.9
			c0.9,1.3,2.7,1.6,3.9,0.7c0,0,27.9-19.5,27.9-19.5C616.1,286.5,616.4,284.7,615.5,283.5z"/>
	</g>
	<g id="LWPOLYLINE_18_">
		<path class="st0" d="M666.7,149l32-11.6c1.5-0.5,2.2-2.2,1.7-3.6l-11.6-32c-0.5-1.5-2.2-2.2-3.6-1.7l-32,11.6
			c-1.5,0.5-2.2,2.2-1.7,3.6l11.6,32C663.6,148.8,665.2,149.5,666.7,149z"/>
	</g>
	<g id="LWPOLYLINE_19_">
		<path class="st0" d="M764.6,110.4l11.6,32c0.5,1.5,2.2,2.2,3.6,1.7l32-11.6c1.5-0.5,2.2-2.2,1.7-3.6l-11.6-32
			c-0.5-1.5-2.2-2.2-3.6-1.7l-32,11.6C764.8,107.3,764,108.9,764.6,110.4z"/>
	</g>
	<g id="LWPOLYLINE_20_">
		<path class="st0" d="M669.9,166.1l11.6,32c0.5,1.5,2.2,2.2,3.6,1.7l32-11.6c1.5-0.5,2.2-2.2,1.7-3.6l-11.6-32
			c-0.5-1.5-2.2-2.2-3.6-1.7l-32,11.6C670.1,163,669.4,164.6,669.9,166.1z"/>
	</g>
	<g id="LWPOLYLINE_21_">
		<path class="st0" d="M483.7,128l11.6,32c0.5,1.5,2.2,2.2,3.6,1.7l32-11.6c1.5-0.5,2.2-2.2,1.7-3.6l-11.6-32
			c-0.5-1.5-2.2-2.2-3.6-1.7l-32,11.6C483.9,124.9,483.1,126.5,483.7,128z"/>
	</g>
	<g id="LWPOLYLINE_22_">
		<path class="st0" d="M568.9,204.3l11.6,32c0.5,1.5,2.2,2.2,3.6,1.7l32-11.6c1.5-0.5,2.2-2.2,1.7-3.6l-11.6-32
			c-0.5-1.5-2.2-2.2-3.6-1.7l-32,11.6C569.1,201.2,568.4,202.9,568.9,204.3z"/>
	</g>
	<g id="LWPOLYLINE_23_">
		<path class="st0" d="M530.8,336c1.1,0.9,1.3,2.5,0.6,3.7c-0.8,1.2-0.5,2.8,0.6,3.7l4.4,3.7c1.1,0.9,2.7,0.9,3.7-0.1
			c1-1,2.7-1,3.7-0.1l1.3,1.1c1.2,1,3,0.8,4-0.3l28.7-34.2c1-1.2,0.8-3-0.3-4l-15.6-13.1c-1.2-1-3-0.8-4,0.3l-3.2,3.8
			c-1,1.2-2.8,1.4-4,0.3c0,0-27.6-23.1-27.6-23.1c-1.2-1-1.4-2.8-0.3-4l3.2-3.8c1-1.2,0.8-3-0.3-4L510,252.9c-1.2-1-3-0.8-4,0.3
			c0,0-28.7,34.2-28.7,34.2c-1,1.2-0.8,3,0.3,4c0,0,1.3,1.1,1.3,1.1c1.1,0.9,1.3,2.5,0.6,3.7c-0.8,1.2-0.5,2.8,0.6,3.7l4.3,3.6
			c1.1,0.9,2.7,0.9,3.7-0.1c1-1,2.7-1,3.7-0.1C491.9,303.4,530.8,336,530.8,336z"/>
	</g>
	<g id="LWPOLYLINE_47_">
		<path class="st0" d="M84.5,92.3c-1.3-0.5-2.8,0.1-3.5,1.4s-2.1,1.9-3.5,1.4l-16.1-5.8c-1.3-0.5-2.1-1.9-1.8-3.3s-0.5-2.8-1.8-3.3
			l-2.7-1c-1.5-0.5-2.2-2.2-1.7-3.6l11.6-32c0.5-1.5,2.2-2.2,3.6-1.7l2.7,1c1.3,0.5,2.8-0.1,3.5-1.4s2.1-1.9,3.5-1.4l16.1,5.8
			c1.3,0.5,2.1,1.9,1.8,3.3c-0.3,1.4,0.5,2.8,1.8,3.3c0,0,2.7,1,2.7,1c1.5,0.5,2.2,2.2,1.7,3.6l-11.6,32c-0.5,1.5-2.2,2.2-3.6,1.7
			L84.5,92.3z"/>
	</g>
	<g id="LWPOLYLINE_46_">
		<path class="st0" d="M47.5,193.8c-1.3-0.5-2.8,0.1-3.5,1.4c-0.7,1.3-2.1,1.9-3.5,1.4l-16-5.8c-1.3-0.5-2.1-1.9-1.8-3.3
			c0.3-1.4-0.5-2.8-1.8-3.3c0,0-2.7-1-2.7-1c-1.5-0.5-2.2-2.2-1.7-3.6l11.6-32c0.5-1.5,2.2-2.2,3.6-1.7l2.7,1
			c1.3,0.5,2.8-0.1,3.5-1.4c0.7-1.3,2.1-1.9,3.5-1.4l16,5.8c1.3,0.5,2.1,1.9,1.8,3.3c-0.3,1.4,0.5,2.8,1.8,3.3l2.7,1
			c1.5,0.5,2.2,2.2,1.7,3.6l-11.6,32c-0.5,1.5-2.2,2.2-3.6,1.7L47.5,193.8z"/>
	</g>
	<g id="LWPOLYLINE_45_">
		<path class="st0" d="M136.2,251.6c-0.3,1.4,0.5,2.8,1.8,3.3l16.1,5.8c1.3,0.5,2.8-0.1,3.5-1.4c0.7-1.3,2.1-1.9,3.5-1.4l2.7,1
			c1.5,0.5,3.1-0.2,3.6-1.7l11.6-32c0.5-1.5-0.2-3.1-1.7-3.6l-2.7-1c-1.3-0.5-2.1-1.9-1.8-3.3c0.3-1.4-0.5-2.8-1.8-3.3l-16.1-5.8
			c-1.3-0.5-2.8,0.1-3.5,1.4c-0.7,1.3-2.1,1.9-3.5,1.4l-2.7-1c-1.5-0.5-3.1,0.2-3.6,1.7l-11.6,32c-0.5,1.5,0.2,3.1,1.7,3.6l2.7,1
			C135.8,248.7,136.5,250.2,136.2,251.6z"/>
	</g>
	<g id="LWPOLYLINE_44_">
		<path class="st0" d="M368.6,335.9c1.4-0.7,2-2.3,1.4-3.8l-2.1-4.5c-0.7-1.4,0-3.1,1.4-3.8c0,0,18.4-8.6,18.4-8.6
			c1.4-0.7,3.1,0,3.8,1.4l18.9,40.5c0.7,1.4,0,3.1-1.4,3.8l-1.5,0.7c-1.3,0.6-1.9,2.1-1.5,3.4c0.4,1.4-0.2,2.8-1.5,3.4l-5.2,2.4
			c-1.3,0.6-2.8,0.1-3.6-1.1c-0.8-1.2-2.3-1.7-3.6-1.1l-46,21.4c-1.3,0.6-1.9,2.1-1.5,3.4c0.4,1.4-0.2,2.8-1.5,3.4
			c0,0-5.2,2.4-5.2,2.4c-1.3,0.6-2.8,0.1-3.6-1.1s-2.3-1.7-3.6-1.1c0,0-1.5,0.7-1.5,0.7c-1.4,0.7-3.1,0-3.8-1.4l-18.9-40.5
			c-0.7-1.4,0-3.1,1.4-3.8l18.4-8.6c1.4-0.7,3.1,0,3.8,1.4c0,0,2.1,4.5,2.1,4.5c0.7,1.4,2.3,2,3.8,1.4L368.6,335.9z"/>
	</g>
	<g id="LWPOLYLINE_43_">
		<path class="st0" d="M235.1,168.6l-11.6,32c-0.5,1.5-2.2,2.2-3.6,1.7l-32-11.6c-1.5-0.5-2.2-2.2-1.7-3.6l11.6-32
			c0.5-1.5,2.2-2.2,3.6-1.7l32,11.6C234.9,165.5,235.7,167.1,235.1,168.6z"/>
	</g>
	<g id="LWPOLYLINE_42_">
		<path class="st0" d="M223.1,85.5l11.6-32c0.5-1.5,2.2-2.2,3.6-1.7l32,11.6c1.5,0.5,2.2,2.2,1.7,3.6l-11.6,32
			c-0.5,1.5-2.2,2.2-3.6,1.7l-32-11.6C223.4,88.6,222.6,86.9,223.1,85.5z"/>
	</g>
	<g id="LWPOLYLINE_41_">
		<path class="st0" d="M327.9,229.5l-11.6,32c-0.5,1.5-2.2,2.2-3.6,1.7l-32-11.6c-1.5-0.5-2.2-2.2-1.7-3.6l11.6-32
			c0.5-1.5,2.2-2.2,3.6-1.7l32,11.6C327.7,226.4,328.4,228,327.9,229.5z"/>
	</g>
	<g id="LWPOLYLINE_40_">
		<path class="st0" d="M229.7,243.7l-11.6,32c-0.5,1.5-2.2,2.2-3.6,1.7l-32-11.6c-1.5-0.5-2.2-2.2-1.7-3.6l11.6-32
			c0.5-1.5,2.2-2.2,3.6-1.7l32,11.6C229.5,240.6,230.3,242.3,229.7,243.7z"/>
	</g>
	<g id="LWPOLYLINE_39_">
		<path class="st0" d="M200.2,98.2l-32-11.6c-1.5-0.5-2.2-2.2-1.7-3.6l11.6-32c0.5-1.5,2.2-2.2,3.6-1.7l32,11.6
			c1.5,0.5,2.2,2.2,1.7,3.6l-11.6,32C203.3,98,201.7,98.8,200.2,98.2z"/>
	</g>
	<g id="LWPOLYLINE_38_">
		<path class="st0" d="M101,113.6l32,11.6c1.5,0.5,2.2,2.2,1.7,3.6l-11.6,32c-0.5,1.5-2.2,2.2-3.6,1.7l-32-11.6
			c-1.5-0.5-2.2-2.2-1.7-3.6l11.6-32C97.9,113.8,99.5,113,101,113.6z"/>
	</g>
	<g id="LWPOLYLINE_37_">
		<path class="st0" d="M116.2,179.6l-11.6,32c-0.5,1.5-2.2,2.2-3.6,1.7l-32-11.6c-1.5-0.5-2.2-2.2-1.7-3.6l11.6-32
			c0.5-1.5,2.2-2.2,3.6-1.7l32,11.6C116,176.5,116.7,178.1,116.2,179.6z"/>
	</g>
	<g id="LWPOLYLINE_36_">
		<path class="st0" d="M119.5,62.8l32,11.6c1.5,0.5,2.2,2.2,1.7,3.6l-11.6,32c-0.5,1.5-2.2,2.2-3.6,1.7l-32-11.6
			c-1.5-0.5-2.2-2.2-1.7-3.6l11.6-32C116.4,63,118,62.3,119.5,62.8z"/>
	</g>
	<g id="LWPOLYLINE_35_">
		<path class="st0" d="M301.2,136.5l-32-11.6c-1.5-0.5-2.2-2.2-1.7-3.6l11.6-32c0.5-1.5,2.2-2.2,3.6-1.7l32,11.6
			c1.5,0.5,2.2,2.2,1.7,3.6l-11.6,32C304.3,136.3,302.7,137.1,301.2,136.5z"/>
	</g>
	<g id="LWPOLYLINE_34_">
		<path class="st0" d="M282.8,187.3l-32-11.6c-1.5-0.5-2.2-2.2-1.7-3.6c0,0,11.6-32,11.6-32c0.5-1.5,2.2-2.2,3.6-1.7l32,11.6
			c1.5,0.5,2.2,2.2,1.7,3.6l-11.6,32C285.9,187,284.2,187.8,282.8,187.3z"/>
	</g>
	<g id="LWPOLYLINE_33_">
		<path class="st0" d="M204.7,136.2l11.6-32c0.5-1.5,2.2-2.2,3.6-1.7l32,11.6c1.5,0.5,2.2,2.2,1.7,3.6l-11.6,32
			c-0.5,1.5-2.2,2.2-3.6,1.7l-32-11.6C204.9,139.3,204.1,137.7,204.7,136.2z"/>
	</g>
	<g id="LWPOLYLINE_32_">
		<path class="st0" d="M346.4,178.7l-11.6,32c-0.5,1.5-2.2,2.2-3.6,1.7l-32-11.6c-1.5-0.5-2.2-2.2-1.7-3.6l11.6-32
			c0.5-1.5,2.2-2.2,3.6-1.7l32,11.6C346.1,175.6,346.9,177.3,346.4,178.7z"/>
	</g>
	<g id="LWPOLYLINE_31_">
		<path class="st0" d="M233,283.5l19.5-27.9c0.9-1.3,2.7-1.6,3.9-0.7l27.9,19.5c1.3,0.9,1.6,2.7,0.7,3.9l-19.5,27.9
			c-0.9,1.3-2.7,1.6-3.9,0.7c0,0-27.9-19.5-27.9-19.5C232.4,286.5,232.1,284.7,233,283.5z"/>
	</g>
	<g id="LWPOLYLINE_30_">
		<path class="st0" d="M181.8,149l-32-11.6c-1.5-0.5-2.2-2.2-1.7-3.6l11.6-32c0.5-1.5,2.2-2.2,3.6-1.7l32,11.6
			c1.5,0.5,2.2,2.2,1.7,3.6l-11.6,32C184.9,148.8,183.2,149.5,181.8,149z"/>
	</g>
	<g id="LWPOLYLINE_29_">
		<path class="st0" d="M83.9,110.4l-11.6,32c-0.5,1.5-2.2,2.2-3.6,1.7l-32-11.6c-1.5-0.5-2.2-2.2-1.7-3.6l11.6-32
			c0.5-1.5,2.2-2.2,3.6-1.7l32,11.6C83.7,107.3,84.5,108.9,83.9,110.4z"/>
	</g>
	<g id="LWPOLYLINE_28_">
		<path class="st0" d="M178.6,166.1l-11.6,32c-0.5,1.5-2.2,2.2-3.6,1.7l-32-11.6c-1.5-0.5-2.2-2.2-1.7-3.6l11.6-32
			c0.5-1.5,2.2-2.2,3.6-1.7l32,11.6C178.3,163,179.1,164.6,178.6,166.1z"/>
	</g>
	<g id="LWPOLYLINE_27_">
		<path class="st0" d="M364.8,128l-11.6,32c-0.5,1.5-2.2,2.2-3.6,1.7l-32-11.6c-1.5-0.5-2.2-2.2-1.7-3.6l11.6-32
			c0.5-1.5,2.2-2.2,3.6-1.7l32,11.6C364.6,124.9,365.4,126.5,364.8,128z"/>
	</g>
	<g id="LWPOLYLINE_26_">
		<path class="st0" d="M279.6,204.3l-11.6,32c-0.5,1.5-2.2,2.2-3.6,1.7l-32-11.6c-1.5-0.5-2.2-2.2-1.7-3.6l11.6-32
			c0.5-1.5,2.2-2.2,3.6-1.7l32,11.6C279.3,201.2,280.1,202.9,279.6,204.3z"/>
	</g>
	<g id="LWPOLYLINE_25_">
		<path class="st0" d="M317.7,336c-1.1,0.9-1.3,2.5-0.6,3.7c0.8,1.2,0.5,2.8-0.6,3.7l-4.4,3.7c-1.1,0.9-2.7,0.9-3.7-0.1
			c-1-1-2.7-1-3.7-0.1l-1.3,1.1c-1.2,1-3,0.8-4-0.3l-28.7-34.2c-1-1.2-0.8-3,0.3-4l15.6-13.1c1.2-1,3-0.8,4,0.3l3.2,3.8
			c1,1.2,2.8,1.4,4,0.3c0,0,27.6-23.1,27.6-23.1c1.2-1,1.4-2.8,0.3-4l-3.2-3.8c-1-1.2-0.8-3,0.3-4l15.6-13.1c1.2-1,3-0.8,4,0.3
			c0,0,28.7,34.2,28.7,34.2c1,1.2,0.8,3-0.3,4c0,0-1.3,1.1-1.3,1.1c-1.1,0.9-1.3,2.5-0.6,3.7c0.8,1.2,0.5,2.8-0.6,3.7l-4.3,3.6
			c-1.1,0.9-2.7,0.9-3.7-0.1c-1-1-2.7-1-3.7-0.1C356.6,303.4,317.7,336,317.7,336z"/>
	</g>
	<path class="st0" d="M78.8,155.3c0.6-1.8-0.3-3.7-2-4.4s-3.7,0.3-4.4,2c-0.6,1.8,0.3,3.7,2,4.4S78.1,157.1,78.8,155.3L78.8,155.3z"
		/>
	<path class="st0" d="M161.9,63.9c0.6-1.8-0.3-3.7-2-4.4c-1.8-0.6-3.7,0.3-4.4,2s0.3,3.7,2,4.4C159.3,66.6,161.3,65.7,161.9,63.9
		L161.9,63.9z"/>
	<path class="st0" d="M249.3,241.2c0.6-1.8-0.3-3.7-2-4.4c-1.8-0.6-3.7,0.3-4.4,2c-0.6,1.8,0.3,3.7,2,4.4
		C246.7,243.9,248.7,243,249.3,241.2L249.3,241.2z"/>
	<path class="st0" d="M348.7,332.3c0.6-1.8-0.3-3.7-2-4.4c-1.8-0.6-3.7,0.3-4.4,2c-0.6,1.8,0.3,3.7,2,4.4S348.1,334,348.7,332.3
		L348.7,332.3z"/>
	<path class="st0" d="M330.8,94.4c0.6-1.8-0.3-3.7-2-4.4c-1.8-0.6-3.7,0.3-4.4,2c-0.6,1.8,0.3,3.7,2,4.4
		C328.2,97.1,330.2,96.2,330.8,94.4L330.8,94.4z"/>
	<path class="st0" d="M130.2,202c0.6-1.8-0.3-3.7-2-4.4c-1.8-0.6-3.7,0.3-4.4,2c-0.6,1.8,0.3,3.7,2,4.4
		C127.6,204.7,129.6,203.8,130.2,202L130.2,202z"/>
	<path class="st0" d="M115.7,53.8c0.6-1.8-0.3-3.7-2-4.4c-1.8-0.6-3.7,0.3-4.4,2s0.3,3.7,2,4.4C113.1,56.5,115.1,55.6,115.7,53.8
		L115.7,53.8z"/>
	<path class="st0" d="M769.7,155.3c-0.6-1.8,0.3-3.7,2-4.4c1.8-0.6,3.7,0.3,4.4,2c0.6,1.8-0.3,3.7-2,4.4S770.3,157.1,769.7,155.3
		L769.7,155.3z"/>
	<path class="st0" d="M686.6,63.9c-0.6-1.8,0.3-3.7,2-4.4c1.8-0.6,3.7,0.3,4.4,2c0.6,1.8-0.3,3.7-2,4.4
		C689.2,66.6,687.2,65.7,686.6,63.9L686.6,63.9z"/>
	<path class="st0" d="M599.1,241.2c-0.6-1.8,0.3-3.7,2-4.4c1.8-0.6,3.7,0.3,4.4,2c0.6,1.8-0.3,3.7-2,4.4
		C601.7,243.9,599.8,243,599.1,241.2L599.1,241.2z"/>
	<path class="st0" d="M499.8,332.3c-0.6-1.8,0.3-3.7,2-4.4c1.8-0.6,3.7,0.3,4.4,2c0.6,1.8-0.3,3.7-2,4.4
		C502.4,334.9,500.4,334,499.8,332.3L499.8,332.3z"/>
	<path class="st0" d="M517.7,94.4c-0.6-1.8,0.3-3.7,2-4.4c1.8-0.6,3.7,0.3,4.4,2c0.6,1.8-0.3,3.7-2,4.4
		C520.3,97.1,518.3,96.2,517.7,94.4L517.7,94.4z"/>
	<path class="st0" d="M718.3,202c-0.6-1.8,0.3-3.7,2-4.4c1.8-0.6,3.7,0.3,4.4,2c0.6,1.8-0.3,3.7-2,4.4
		C720.9,204.7,718.9,203.8,718.3,202L718.3,202z"/>
	<path class="st0" d="M732.8,53.8c-0.6-1.8,0.3-3.7,2-4.4c1.8-0.6,3.7,0.3,4.4,2c0.6,1.8-0.3,3.7-2,4.4
		C735.4,56.5,733.4,55.6,732.8,53.8L732.8,53.8z"/>
	<path class="st0" d="M426.2,365.7l97.9,45.6c1.4,0.7,3.1,0,3.8-1.4l11.4-24.5c22.7-48.6,63.7-86.2,114.1-104.6l76.1-27.7
		c1.5-0.5,2.2-2.2,1.7-3.6l-5.4-14.8c-0.5-1.5,0.2-3.1,1.7-3.6l115.6-42.1c1.5-0.5,2.2-2.2,1.7-3.6L789,32.2c-0.4-1-1.2-1.7-2.3-1.8
		C654.8,11.1,522.1,52.1,424.2,140.4C326.4,52.1,193.7,11.1,61.8,30.3c-1,0.2-1.9,0.9-2.3,1.8L3.7,185.5c-0.5,1.5,0.2,3.1,1.7,3.6
		L121,231.2c1.5,0.5,2.2,2.2,1.7,3.6l-5.4,14.8c-0.5,1.5,0.2,3.1,1.7,3.6l76.1,27.7c50.4,18.3,91.5,56,114.1,104.6l11.4,24.5
		c0.7,1.4,2.3,2,3.8,1.4l97.9-45.6H426.2z"/>
</g>
</svg>
